<?xml version="1.0" encoding="UTF-8"?>
<svg width="394px" height="96px" viewBox="0 0 394 96" version="1.1" xmlns="http://www.w3.org/2000/svg" xmlns:xlink="http://www.w3.org/1999/xlink">
    <title>Artboard</title>
    <defs>
        <polygon id="path-1" points="6.76751593e-06 0.0287525856 85 0.0287525856 85 84.9611312 6.76751593e-06 84.9611312"></polygon>
        <path d="M12.8617742,22.2448208 C31.646513,28.9020495 38.6527839,11.6959904 38.6527839,11.6959904 L38.6527839,11.6959904 L0.522688223,0.0466614083 C0.522688223,0.0466614083 -3.80884405,16.3369905 12.8617742,22.2448208" id="path-3"></path>
        <path d="M12.8617742,22.2448208 C31.646513,28.9020495 38.6527839,11.6959904 38.6527839,11.6959904 L38.6527839,11.6959904 L0.522688223,0.0466614083 C0.522688223,0.0466614083 -3.80884405,16.3369905 12.8617742,22.2448208" id="path-5"></path>
    </defs>
    <g id="Artboard" stroke="none" stroke-width="1" fill="none" fill-rule="evenodd">
        <g id="smiley-swap的副本" transform="translate(102.809701, 14.152985)" fill="#FFFFFF" fill-rule="nonzero">
            <path d="M29.4401186,30.5094199 C28.1485141,29.5202089 26.7218836,28.7156624 25.2023969,28.1195623 C23.6419182,27.5016088 22.0930725,26.9533184 20.5558598,26.4746912 L16.9961736,25.3412299 C15.972954,25.021744 14.9816498,24.6102317 14.034754,24.1118794 C13.2623618,23.7173814 12.5742755,23.1797799 12.0081259,22.5284758 C11.4994187,21.9023554 11.2342058,21.1175929 11.2602927,20.3156447 C11.2418122,18.961177 11.8356853,17.6689117 12.880598,16.7898672 C13.9624634,15.8358911 15.5412225,15.3580835 17.6168752,15.3564444 C21.1483099,15.3564444 23.8903651,16.8316651 25.8430407,19.7821065 L32.8228176,14.4245966 C31.9159718,13.4896078 30.946601,12.6156292 29.9212246,11.8085386 C28.8818641,10.997477 27.7519564,10.3061971 26.5534823,9.74814697 C25.2625803,9.15391154 23.9091139,8.70205205 22.5176756,8.40077871 C20.8884486,8.05675958 19.2255932,7.8918401 17.5595413,7.90903847 C15.5124356,7.88947992 13.4768222,8.21288735 11.5394838,8.86547324 C9.78427224,9.45120353 8.15582858,10.3560365 6.73839439,11.533164 C5.41858171,12.6253001 4.34525892,13.9779271 3.5875237,15.5039665 C2.83569706,17.0294766 2.45096577,18.7055481 2.46328108,20.4016992 C2.46328108,22.4719257 2.84799972,24.1930165 3.61743703,25.5649718 C4.36013612,26.9125812 5.37880573,28.0931558 6.60876997,29.0317404 C7.86762098,29.9826367 9.26754752,30.7364733 10.7592444,31.2666998 C12.298119,31.8223663 13.8369936,32.339513 15.3758682,32.8181403 C16.5823725,33.1771107 17.7573016,33.5352615 18.9006555,33.8925927 C19.9441344,34.2114853 20.9561823,34.6229501 21.9243946,35.1219433 C22.7330397,35.5281866 23.4536054,36.0860691 24.0457482,36.7643557 C24.5912469,37.4189443 24.8789183,38.2457158 24.8559009,39.0927457 C24.8559009,40.6040275 24.2634507,41.9579521 23.0785505,43.1545201 C21.8936503,44.3510881 20.1786195,44.9485525 17.9334579,44.9469133 C15.9385989,44.968719 13.9757126,44.4517577 12.2574037,43.452023 C10.4823491,42.3900084 9.00159656,40.910914 7.94739145,39.1468372 L0.219781375,44.8928219 C2.32320172,47.2079801 4.81182854,49.1520425 7.57846039,50.6412652 C10.4036082,52.1804122 13.8760471,52.9491662 17.9957773,52.947527 C20.2754501,52.9859043 22.5412274,52.5902012 24.6689426,51.7821026 C26.4940423,51.0867802 28.1670008,50.0526576 29.5971636,48.7357718 C30.9049294,47.5130506 31.9442691,46.0385346 32.6508159,44.4035403 C33.3488445,42.8182566 33.7102466,41.108746 33.7127391,39.3804138 C33.7127391,37.2708481 33.3172184,35.5079594 32.5261771,34.0917475 C31.7565567,32.7021365 30.7062434,31.4829224 29.4401186,30.5094199 Z" id="Path"></path>
            <path d="M76.4451335,52.9500736 L76.4451335,37.9694282 C76.4451335,34.7348869 75.5675907,32.1885459 73.8125055,30.3304051 C72.0574202,28.4722644 69.4529929,27.543194 65.9992238,27.543194 C64.2783809,27.5130383 62.5782451,27.9174314 61.0599359,28.7180502 C59.6543148,29.464311 58.4575253,30.5425962 57.5763071,31.856735 C56.8332712,30.5084071 55.7093931,29.4025511 54.341509,28.6738087 C52.9530341,27.9184271 51.2485443,27.5416229 49.2280396,27.543194 C47.7676372,27.5187715 46.3208563,27.8239217 44.997919,28.4353965 C43.7924607,28.9994061 42.7342657,29.8293806 41.9049543,30.8613025 L41.9049543,27.5849776 L36.0225983,27.5849776 L36.0225983,52.9500736 L41.9447672,52.9500736 L41.9447672,39.2229359 C41.9447672,37.020695 42.4938535,35.3690143 43.5920259,34.2678938 C44.6808214,33.1697725 46.1846191,32.5709805 47.7400325,32.6162132 C49.5233187,32.6162132 50.8694924,33.1241706 51.7785535,34.1400852 C52.6876147,35.1559998 53.1404864,36.5537019 53.1371687,38.3331912 L53.1371687,52.9500736 L59.1638465,52.9500736 L59.1638465,39.0975851 C59.1638465,36.9215614 59.7054679,35.2977364 60.7887105,34.2261103 C61.8515547,33.1608952 63.3135876,32.5780771 64.8272316,32.6162132 C66.6685782,32.6162132 68.0578824,33.1454719 68.9951445,34.2039895 C69.9324066,35.2625072 70.4010376,36.6954385 70.4010376,38.5027834 L70.4010376,52.9500736 L76.4451335,52.9500736 Z" id="Path"></path>
            <path d="M82.2197454,24.0768341 C83.3074868,24.0768341 84.153679,23.7623463 84.7583217,23.1333705 C85.3629644,22.5043948 85.6706705,21.6709245 85.6814403,20.6329596 C85.7207582,19.7020645 85.388318,18.7940665 84.7583217,18.1116345 C84.1429092,17.4702651 83.2967172,17.1488059 82.2197454,17.1472567 C81.1627746,17.1472567 80.3219674,17.4687159 79.6973238,18.1116345 C79.0578225,18.7891666 78.718854,19.699072 78.7580506,20.6329596 C78.7580506,21.6709245 79.0565255,22.5043948 79.6534756,23.1333705 C80.2504258,23.7623463 81.1058489,24.0768341 82.2197454,24.0768341 Z" id="Path"></path>
            <rect id="Rectangle" x="79.9099222" y="27.5416229" width="5.77464789" height="25.4084507"></rect>
            <path d="M119.060798,31.0119602 C117.903694,29.8916266 116.540329,29.0221694 115.051463,28.4550912 C113.434262,27.8348275 111.720529,27.5254451 109.99518,27.5422743 C106.621837,27.5164195 103.370916,28.8442383 100.929561,31.245072 C98.5525571,33.6176798 97.2178301,36.8881908 97.2340113,40.2996272 C97.226678,41.996135 97.5503677,43.6768597 98.1860812,45.2415984 C98.7955763,46.753583 99.694708,48.1231588 100.829625,49.268299 C102.006405,50.4394775 103.397703,51.3570759 104.92224,51.9674888 C106.608897,52.6383158 108.404091,52.9714351 110.211708,52.9490124 C112.952808,52.9490124 115.282267,52.3216552 117.200086,51.0669409 C119.084089,49.8458672 120.624812,48.1368418 121.668651,46.1102468 L117.009732,43.3398965 C115.844293,46.1227198 113.149753,47.8899685 110.211708,47.7984674 C108.195539,47.7984674 106.52994,47.2504501 105.21491,46.1544154 C103.900792,45.0612143 102.995778,43.5311495 102.654646,41.8258963 L122.641837,41.8258963 L122.641837,39.7548816 C122.65656,38.0814734 122.33239,36.4233223 121.690066,34.8865246 C121.077067,33.4247395 120.182564,32.1065749 119.060798,31.0119602 L119.060798,31.0119602 Z M102.933039,36.9354551 C103.454102,35.6411471 104.373918,34.5597778 105.550409,33.8583786 C106.795643,33.081339 108.271681,32.6928193 109.978524,32.6928193 C111.7393,32.6928193 113.221683,33.0518933 114.425674,33.7700415 C115.605809,34.4586355 116.479683,35.5939263 116.862207,36.9354551 L102.933039,36.9354551 Z" id="Shape"></path>
            <polygon id="Path" points="135.57705 44.8624998 128.709578 27.5416229 122.642317 27.5416229 132.756012 51.7638634 127.572564 64.4993694 133.346018 64.4993694 148.050767 27.5416229 142.067109 27.5416229"></polygon>
            <path d="M92.6754193,63.3444398 L98.3887955,63.3444398 L98.3887955,57.7178218 L95.1632182,57.7178218 C94.5411853,57.7164925 94.0376654,57.2333484 94.0376654,56.63782 L94.0376654,20.6120454 L87.9944293,20.6120454 L87.9944293,58.8749666 C87.9999853,61.345888 90.094516,63.3457739 92.6754193,63.3444398 L92.6754193,63.3444398 Z" id="Path"></path>
            <path d="M93.7690771,75.7076366 C85.8680154,75.6986126 79.4653222,69.6516243 79.4557674,62.1895102 L72.9803448,62.1895102 C72.9803448,73.0329602 82.2877776,81.823313 93.7690771,81.823313 C105.250377,81.823313 114.55781,73.0329602 114.55781,62.1895102 L108.082387,62.1895102 C108.072832,69.6516243 101.670139,75.6986126 93.7690771,75.7076366 Z" id="Path"></path>
            <path d="M188.67574,30.2907263 C187.338061,29.2718213 185.861121,28.4434276 184.288475,27.8299738 C182.674309,27.1934591 181.071815,26.6283065 179.480993,26.1345154 L175.804095,24.9631972 C174.744738,24.6368884 173.718872,24.2134201 172.740013,23.6983704 C171.940433,23.2911874 171.227955,22.7364579 170.64143,22.0644307 C170.115462,21.4191014 169.841333,20.610043 169.868531,19.7833132 C169.849434,18.3855655 170.464739,17.0522106 171.546897,16.146321 C172.662473,15.16202 174.29665,14.6698695 176.449428,14.6698695 C180.102981,14.6698695 182.937778,16.195536 184.953819,19.2468691 L192.180049,13.7175583 C191.243428,12.749019 190.240572,11.8446328 189.1785,11.0107305 C188.10851,10.1738583 186.944471,9.4604987 185.709209,8.88464037 C184.368576,8.26786129 182.962612,7.79909953 181.517045,7.48693295 C181.424497,7.46724693 181.324445,7.45248241 181.231897,7.43525714 L181.231897,0.97824259 L173.530421,0.97824259 L173.530421,7.17441738 C172.382792,7.32899855 171.253427,7.59440031 170.158681,7.96677968 C168.346201,8.56978061 166.664045,9.50029308 165.19862,10.7105187 C163.837659,11.8396288 162.730312,13.2348991 161.946941,14.8076716 C161.170345,16.3823176 160.773194,18.1118989 160.786342,19.8620573 C160.786342,21.9947094 161.184047,23.7713727 161.979458,25.1920472 C162.749395,26.5816001 163.803779,27.79904 165.076057,28.7675206 C166.37632,29.7513262 167.823296,30.5315673 169.365771,31.0806279 C170.95826,31.6531631 172.549915,32.1863259 174.140737,32.680117 C175.388047,33.0508705 176.603675,33.4208035 177.787619,33.7899164 C178.866915,34.1188683 179.914129,34.542165 180.916735,35.0547432 C181.752769,35.474627 182.497812,36.0504709 183.110367,36.7502017 C183.674898,37.4251821 183.972482,38.2781223 183.9483,39.1518961 C183.9483,40.7136538 183.335483,42.10808 182.109851,43.3351753 C180.884218,44.5622707 179.109969,45.178279 176.787103,45.1832005 C174.72368,45.2065759 172.693237,44.6729351 170.916572,43.6403086 C169.077146,42.547958 167.542137,41.0234529 166.449266,39.2035719 L158.445133,45.1315247 C160.620905,47.5215554 163.195971,49.5280798 166.059064,51.0643989 C167.93943,52.0587944 169.97636,52.735085 172.084675,53.0649907 L172.084675,58.7247215 L179.78365,58.7247215 L179.78365,53.2520079 C181.138763,53.0758397 182.466836,52.737013 183.738191,52.2430994 C185.625445,51.5237075 187.355657,50.4563012 188.835823,49.0982577 C190.188507,47.8354847 191.264424,46.3139204 191.997455,44.6270704 C192.715728,42.9956621 193.088502,41.2373546 193.093021,39.4594902 C193.093021,37.280904 192.684477,35.4624079 191.867388,34.0040019 C191.071992,32.5650978 189.985852,31.3014443 188.67574,30.2907263 Z" id="Path"></path>
            <polygon id="Path" points="228.756681 27.5416229 222.969951 45.0885967 216.753125 27.5416229 210.968838 27.5416229 204.622495 45.0443482 199.050812 27.5416229 193.093021 27.5416229 201.514083 52.9500736 207.254383 52.9500736 213.818216 35.3613096 220.206102 52.9500736 225.819329 52.9500736 234.670486 27.5416229"></polygon>
            <path d="M253.335996,30.9254994 C252.40886,29.8476282 251.261572,29.001174 249.978966,28.4487271 C248.574942,27.8337252 247.065257,27.5252531 245.542808,27.5422921 C244.019637,27.5419957 242.509178,27.8317301 241.085536,28.3972808 C238.150264,29.5303767 235.78582,31.8667816 234.540385,34.8648168 C233.834442,36.5686578 233.485696,38.4104893 233.517558,40.2666792 C233.486817,42.1105548 233.839799,43.9394174 234.552114,45.6268946 C235.198366,47.1331264 236.128672,48.4879015 237.287472,49.6103088 C239.51809,51.743601 242.429003,52.9338569 245.453663,52.9498649 C246.995501,52.9596443 248.521619,52.6255348 249.929702,51.9694895 C251.247942,51.3706317 252.412501,50.4558066 253.328958,49.2991811 L253.328958,52.8979729 L258.924007,52.8979729 L258.924007,27.5839392 L253.328958,27.5839392 L253.335996,30.9254994 Z M253.066213,43.0692781 C252.705041,43.9454158 252.192067,44.7443851 251.553087,45.426009 C250.905389,46.1129877 250.129197,46.6533655 249.272841,47.0134951 C247.414381,47.7713487 245.350922,47.7713487 243.492463,47.0134951 C242.621246,46.6543151 241.824676,46.1227645 241.146531,45.4480574 C240.480484,44.7797329 239.95134,43.9771202 239.591177,43.0888767 C239.21643,42.1705491 239.026389,41.1815986 239.032845,40.1833852 C239.025411,39.1906157 239.215538,38.2070578 239.591177,37.2950424 C239.952041,36.4200857 240.481473,35.6320454 241.146531,34.9799585 C241.82878,34.3156367 242.624591,33.7912418 243.492463,33.4341194 C245.350922,32.6762658 247.414381,32.6762658 249.272841,33.4341194 C250.125322,33.7918383 250.900629,34.3241028 251.553087,34.9995571 C252.194247,35.6718425 252.707673,36.4648629 253.066213,37.3366894 C253.439449,38.234854 253.629591,39.2043097 253.624545,40.1833852 C253.6322,41.1753854 253.442058,42.1581909 253.066213,43.0692781 L253.066213,43.0692781 Z" id="Shape"></path>
            <path d="M289.084941,34.8550961 C288.454108,33.3565048 287.54326,32.0034452 286.405387,30.8746362 C285.301872,29.7941933 284.003725,28.9518911 282.585849,28.396329 C281.16699,27.8308311 279.660401,27.5416229 278.141081,27.5424995 C276.571048,27.5216984 275.016884,27.8713254 273.595242,28.5651376 C272.29481,29.1932329 271.153447,30.1290454 270.262254,31.2978812 L270.262254,27.5840901 L264.698655,27.5840901 L264.698655,64.4993694 L270.262254,64.4993694 L270.262254,49.4142337 C271.152951,50.5637562 272.311764,51.4565754 273.628149,52.0075265 C275.076654,52.6255966 276.629754,52.9342625 278.195142,52.915179 C279.679624,52.9108331 281.150588,52.6213761 282.534138,52.0613496 C283.949849,51.4986398 285.247644,50.6562539 286.356027,49.5805959 C287.502831,48.4538018 288.423916,47.1017952 289.066137,45.6025825 C289.780642,43.9175814 290.135112,42.0911905 290.105051,40.2496346 C290.137298,38.3964227 289.789529,36.5573553 289.084941,34.8550961 Z M284.017294,43.0680057 C283.656382,43.9544086 283.127118,44.7557703 282.461273,45.4239878 C281.787165,46.0930307 280.997651,46.6234435 280.134292,46.987303 C279.224079,47.3697638 278.250606,47.5626032 277.269051,47.5548916 C276.27428,47.5655762 275.287187,47.3727277 274.363851,46.987303 C273.505517,46.6282853 272.727701,46.0885599 272.079179,45.4019692 C270.762618,44.0053492 270.030792,42.1230332 270.043658,40.1664535 C270.03915,39.1907221 270.222991,38.223989 270.58427,37.3236173 C271.284931,35.5452782 272.648814,34.138924 274.363851,33.4263385 C275.286858,33.0397412 276.274179,32.8468486 277.269051,32.8587499 C278.250712,32.8498248 279.22441,33.0427088 280.134292,33.4263385 C280.994434,33.7878531 281.783249,34.3111627 282.461273,34.9700817 C283.126164,35.6220651 283.655719,36.4088805 284.017294,37.2820268 C284.394404,38.1926471 284.585698,39.1748641 284.57906,40.1664535 C284.584786,41.1634843 284.393576,42.1511007 284.017294,43.0680057 L284.017294,43.0680057 Z" id="Shape"></path>
        </g>
        <g id="smiley-swap" transform="translate(7.294776, 19.188433)" fill="#FFFFFF" fill-rule="nonzero">
            <path d="M21.0949432,14.1129537 C21.0974796,16.1625067 22.7970696,17.8233796 24.8944002,17.8258581 C26.991731,17.8233796 28.691321,16.1625067 28.6938574,14.1129537 L28.6938574,14.1129537 L30.4127532,14.1129537 C30.4127532,17.0912285 27.9421023,19.505597 24.8944002,19.505597 C21.8466981,19.505597 19.3760473,17.0912285 19.3760473,14.1129537 L19.3760473,14.1129537 L21.0949432,14.1129537 Z M34.6383176,4.95342805 L36.5288401,9.49013712 L38.315466,4.95342805 L39.9626866,4.95342805 L35.9146669,14.6334543 L34.3253129,14.6334543 L35.7522463,11.2977523 L32.9680821,4.95342805 L34.6383176,4.95342805 Z M25.3593044,3.19657779 L25.3593044,12.7994929 C25.3593041,12.958235 25.4907973,13.0870204 25.6532396,13.0873748 L25.6532396,13.0873748 L26.4955906,13.0873748 L26.4955906,14.5871881 L25.0035573,14.5871881 C24.3295613,14.5875436 23.7825801,14.0544605 23.781129,13.3958195 L23.781129,13.3958195 L23.781129,3.19657779 L25.3593044,3.19657779 Z M4.57407809,0.00031843923 C5.01356811,-0.00417643409 5.45221493,0.0389260613 5.88199088,0.12883711 C6.24904021,0.207576342 6.60607288,0.325671991 6.94660161,0.480978268 C7.26274864,0.626827341 7.5608085,0.807496657 7.8349828,1.0194715 C8.1054682,1.23040851 8.36117979,1.45882702 8.60039783,1.70319083 L8.60039783,1.70319083 L6.75919332,3.10340176 C6.24409445,2.33228974 5.52076408,1.94673372 4.58920227,1.94673372 C4.04166311,1.94716211 3.62520019,2.07203942 3.33981348,2.32136564 C3.06417458,2.55110814 2.90751601,2.88884789 2.91239101,3.24284451 C2.90550952,3.45243753 2.97547039,3.65753896 3.10966292,3.82117854 C3.25900826,3.99139998 3.44051945,4.13190471 3.64426981,4.23500866 C3.8940527,4.36525542 4.15555014,4.47280615 4.42546659,4.55630532 L4.42546659,4.55630532 L5.36448089,4.85254085 C5.76998427,4.97763237 6.17855631,5.12093071 6.59019702,5.28243582 C6.99102439,5.43822943 7.36735718,5.64850151 7.70807122,5.90703658 C8.04206396,6.16146616 8.31912744,6.48011357 8.52214664,6.8432951 C8.73081649,7.21342887 8.83515142,7.67416832 8.83515142,8.2255134 C8.8344939,8.67722131 8.73915917,9.1240101 8.55502531,9.53833163 C8.36864435,9.96564523 8.09447558,10.3510171 7.74949832,10.6705811 C7.37223381,11.0147556 6.93092192,11.2850285 6.44947641,11.4667543 C5.88820364,11.6779548 5.29051123,11.7813736 4.68915337,11.7713435 C3.60240432,11.7717719 2.68640507,11.5708544 1.94115562,11.168591 C1.21134216,10.7793754 0.554864021,10.2712854 -2.25358703e-14,9.66620769 L-2.25358703e-14,9.66620769 L2.03847644,8.16446704 C2.31656659,8.62551696 2.70717626,9.01208542 3.17542023,9.28964799 C3.6286952,9.55093347 4.14648756,9.68604374 4.67271404,9.68034476 C5.26496814,9.68077315 5.71737841,9.52462297 6.02994482,9.21189419 C6.34251119,8.89916544 6.49879436,8.54531068 6.49879436,8.15032997 C6.50486619,7.92895463 6.42898101,7.71287396 6.28508315,7.54179405 C6.12888099,7.36452062 5.93880204,7.21871534 5.7254885,7.11254172 C5.4700825,6.98212742 5.20311306,6.87458917 4.9278524,6.79124502 C4.62624555,6.6978548 4.31630945,6.60425036 3.99804411,6.51043175 C3.59210235,6.38534023 3.18616058,6.25018142 2.78021882,6.10495533 C2.38672214,5.96637804 2.01743367,5.76935925 1.6853597,5.52083798 C1.36090583,5.2755344 1.09218962,4.96698553 0.896272059,4.61478132 C0.693301179,4.25621421 0.591815741,3.80639889 0.591815741,3.26533528 C0.588567068,2.82203804 0.690055844,2.3839887 0.888381181,1.98528932 C1.08826515,1.58645161 1.37139838,1.23293605 1.7195535,0.947501048 C2.09346034,0.639853128 2.52302964,0.403370676 2.98603918,0.250287254 C3.49709225,0.0797308035 4.03406938,-0.00479328319 4.57407809,0.00031843923 Z M29.5697447,4.94250393 C30.046558,4.93809677 30.5201614,5.01911654 30.9670874,5.18154867 C31.3785467,5.33005275 31.7553232,5.55774265 32.0750979,5.85113095 C32.3851066,6.13778414 32.6323091,6.48297962 32.8017161,6.86578586 C32.9792272,7.26823611 33.0688144,7.70246585 33.0647453,8.14069106 L33.0647453,8.14069106 L33.0647453,8.68303986 L27.5411318,8.68303986 C27.6354063,9.12960451 27.8855139,9.53029155 28.2486804,9.81657456 C28.6120991,10.1035996 29.0724003,10.2471121 29.6295837,10.2471121 C30.4415349,10.271074 31.1861919,9.80827425 31.50827,9.07951996 L31.50827,9.07951996 L32.795798,9.80500787 C32.5073251,10.3357242 32.0815346,10.7832767 31.5608758,11.1030465 C31.030872,11.4316259 30.3871078,11.5959156 29.6295837,11.5959156 C29.1300349,11.6017875 28.6339194,11.5145516 28.1677989,11.3388782 C27.7464812,11.1790258 27.3619853,10.9387289 27.0367732,10.6320255 C26.7231302,10.332141 26.4746482,9.97348212 26.3062096,9.57752982 C26.1305252,9.16776247 26.0410711,8.72762126 26.0430576,8.28334681 C26.038626,7.38997393 26.4074881,6.53350603 27.0643914,5.91217733 C27.7390786,5.28345694 28.6374954,4.93573315 29.5697447,4.94250393 Z M17.5881063,4.94250393 C18.5008176,4.94250393 19.1890773,5.18540426 19.6528855,5.67120481 C20.1166937,6.15700538 20.3485978,6.82273209 20.3485978,7.66838496 L20.3485978,7.66838496 L20.3485978,11.5849915 L18.751353,11.5849915 L18.751353,7.80782771 C18.751353,7.33530742 18.6275099,6.96067547 18.3798242,6.68393191 C18.1321383,6.40718842 17.7649933,6.26881664 17.2783893,6.26881664 C16.8783856,6.25884618 16.4920211,6.41122069 16.2111481,6.68971529 C15.9248848,6.96988596 15.781753,7.394426 15.781753,7.96333533 L15.781753,7.96333533 L15.781753,11.5849915 L14.1891111,11.5849915 L14.1891111,7.76348878 C14.1899879,7.29825119 14.0703096,6.93282979 13.8300763,6.66722453 C13.5898429,6.40161927 13.2340959,6.26881664 12.7628352,6.26881664 C12.3517934,6.25699079 11.9543918,6.41354165 11.6666609,6.70063935 C11.376452,6.98852118 11.2313476,7.42034394 11.2313476,7.99610757 L11.2313476,7.99610757 L11.2313476,11.5849915 L9.66632373,11.5849915 L9.66632373,4.95342805 L11.2208264,4.95342805 L11.2208264,5.81000497 C11.4399846,5.54021475 11.7196289,5.32322253 12.0381897,5.17576535 C12.3877962,5.01589862 12.7701302,4.93611883 13.1560639,4.94250393 C13.6900132,4.94209317 14.1404507,5.04060654 14.5073765,5.23809688 C14.8688608,5.42862251 15.1658628,5.71774248 15.3622214,6.07025526 C15.5950969,5.72668096 15.9113668,5.44476932 16.2828238,5.24966358 C16.6840601,5.04034625 17.1333471,4.93461986 17.5881063,4.94250393 Z M22.8190997,4.95342805 L22.8190997,11.5843489 L21.241582,11.5843489 L21.241582,4.95342805 L22.8190997,4.95342805 Z M29.5651417,6.2913074 C29.0934426,6.2913074 28.685528,6.39305135 28.3413982,6.59653926 C28.0162659,6.78021876 27.7620677,7.0634033 27.6180679,7.40235129 L27.6180679,7.40235129 L31.4675005,7.40235129 C31.361787,7.0510373 31.120285,6.75373206 30.7941457,6.57340587 C30.4614137,6.38534023 30.0517457,6.2913074 29.5651417,6.2913074 Z M22.0286971,2.36891755 C22.3355643,2.36934595 22.5766744,2.45823803 22.7520272,2.63559379 C22.9315357,2.82430448 23.0262596,3.0753902 23.0150566,3.33280758 C23.0119878,3.61983261 22.9243114,3.85030943 22.7520272,4.02423803 C22.5797432,4.19816664 22.3386331,4.28513093 22.0286971,4.28513093 C21.7113083,4.28513093 21.467568,4.19816664 21.2974757,4.02423803 C21.1273835,3.85030943 21.0423374,3.61983261 21.0423374,3.33280758 C21.0311689,3.0745627 21.127753,2.82294953 21.3099696,2.63559379 C21.4879527,2.45780963 21.7275286,2.36891755 22.0286971,2.36891755 Z" id="Combined-Shape"></path>
        </g>
        <g id="Group-35">
            <g id="Group-20">
                <path d="M81.1667031,42.655678 C81.1699514,64.0856858 63.786301,81.4607135 42.3392309,81.4639596 C20.8920931,81.4671377 3.50323169,64.0973168 3.49998328,42.6673085 C3.49673487,21.2373683 20.8805207,3.86227288 42.3275231,3.85909467 C63.7745931,3.85584885 81.1634544,21.2256699 81.1667031,42.655678" id="Fill-1" fill="#FFE77E" fill-rule="nonzero"></path>
                <path d="M74.6634789,21.3403016 C74.6634789,21.3403016 88.0038094,67.6347368 40.3391795,80.9645893 C40.3391795,80.9645893 67.6730412,84.9573581 78.6688332,56.6449198 C78.6688332,56.6449198 89.0003261,44.3198521 74.6634789,21.3403016" id="Fill-3" fill="#EAA549" fill-rule="nonzero"></path>
                <g id="Fill-5-Clipped">
                    <mask id="mask-2" fill="white">
                        <use xlink:href="#path-1"></use>
                    </mask>
                    <g id="path-1"></g>
                    <path d="M42.4941867,4.02557837 C21.265369,4.02875656 3.996834,21.2886254 3.99994705,42.5006898 C4.00319546,63.7128219 21.2769415,80.9674836 42.5058268,80.964373 C63.7345768,80.9611273 81.0031798,63.7013261 80.9999986,42.4891941 C80.996818,21.277062 63.7230044,4.02240016 42.4941867,4.02557837 M42.5064357,84.9611312 C19.0718141,84.9646476 0.0035258758,65.9172769 6.76751593e-06,42.5012983 C-0.00351234076,19.0853875 19.0590235,0.0322688943 42.4935776,0.0287525856 C65.9281318,0.0252362769 84.9964877,19.0726746 85.0000068,42.4885856 C85.0035258,65.9044963 65.9409901,84.9576148 42.5064357,84.9611312" id="Fill-5" fill="#000000" fill-rule="nonzero" mask="url(#mask-2)"></path>
                </g>
                <polyline id="Fill-8" fill="#FFE77E" fill-rule="nonzero" points="26.8296342 17.8502434 32.1639255 24.1777733 24.1645864 28.8418862"></polyline>
                <polygon id="Fill-10" fill="#000000" fill-rule="nonzero" points="25.0046517 30.2802525 23.3245482 27.403574 29.6130593 23.7369432 25.5550537 18.9231842 28.1042416 16.7773568 34.7147512 24.61859"></polygon>
                <polyline id="Fill-12" fill="#FFE77E" fill-rule="nonzero" points="65.4979208 28.8357056 56.8317782 32.1676786 61.1662368 39.827619"></polyline>
                <polygon id="Fill-14" fill="#000000" fill-rule="nonzero" points="59.7155319 40.6473178 54.4298988 31.3067848 64.899449 27.2815581 66.096487 30.3899073 59.2336173 33.0286265 62.6169692 39.0079065"></polygon>
                <path d="M39.9553057,67.7072006 C37.1724355,67.7076056 34.216926,67.1552746 31.170258,66.0652865 C21.8373121,62.726416 18.6879132,56.2495107 17.6891632,51.4038345 C16.6226704,46.2284367 17.7437094,41.8668615 17.7918941,41.6837431 L18.2343543,40.0041647 L59.7251824,52.8004177 L59.0473477,54.4801988 C58.8296369,55.0200874 53.5562531,67.7051712 39.9553057,67.7072006" id="Fill-16" fill="#FF99C3" fill-rule="nonzero"></path>
                <path d="M17.064914,37.9004925 L16.1799936,41.2597843 C16.1277484,41.4583206 14.9123026,46.1863357 16.0568925,51.7396692 C17.1418607,57.003448 20.547004,64.0335633 30.6087436,67.6332488 C33.835969,68.7877476 36.9807659,69.3729425 39.9555629,69.3725376 C46.0765781,69.3715901 51.5960964,66.8932014 55.9173583,62.2054208 C59.1005948,58.752 60.5338193,55.2500273 60.5933732,55.1026125 L61.9485006,51.7431851 L58.4848187,50.6749714 L20.3866815,38.9249555 L17.064914,37.9004925 Z M19.4036322,42.1075529 L57.5017014,53.8575011 C57.5017014,53.8575011 52.5873342,66.0399552 39.9550215,66.041917 C37.5100533,66.0422545 34.7761123,65.5863514 31.7322866,64.4974454 C15.0758057,58.5385195 19.4036322,42.1075529 19.4036322,42.1075529 L19.4036322,42.1075529 Z" id="Fill-18" fill="#000000" fill-rule="nonzero"></path>
            </g>
            <g id="Group-27" transform="translate(19.125000, 42.075000)">
                <g id="Fill-21-Clipped">
                    <mask id="mask-4" fill="white">
                        <use xlink:href="#path-3"></use>
                    </mask>
                    <g id="path-3"></g>
                    <path d="M31.6464791,28.4857909 C31.6479016,37.6047442 21.4819306,44.9985661 8.94025796,45.0004444 C-3.60148238,45.0022533 -13.7696208,37.6114484 -13.7710432,28.4925622 C-13.7723978,19.373609 -3.60656229,11.979787 8.93517802,11.9779087 C21.4768506,11.9760326 31.6450568,19.3668377 31.6464791,28.4857909" id="Fill-21" fill="#F44764" fill-rule="nonzero" mask="url(#mask-4)"></path>
                </g>
                <g id="Fill-24-Clipped">
                    <mask id="mask-6" fill="white">
                        <use xlink:href="#path-5"></use>
                    </mask>
                    <g id="path-5"></g>
                    <path d="M8.93534058,12.9685855 C-3.03440257,12.9703296 -12.7715619,19.9344108 -12.7703428,28.4924884 C-12.7689881,37.0504992 -3.0295936,44.0114292 8.94001411,44.0096874 C20.9097572,44.0078762 30.6469844,37.0439961 30.6456975,28.4859853 C30.6444106,19.9279747 20.9050161,12.9668434 8.93534058,12.9685855 M8.94035279,45.9910539 C-4.13308413,45.9929301 -14.7705379,38.1431537 -14.772028,28.4927566 C-14.7734504,18.8421582 -4.13843498,10.989231 8.93500195,10.9872857 C22.0085065,10.9853425 32.6458926,18.8351189 32.6473828,28.4856502 C32.6488051,38.1361144 22.0138574,45.9890418 8.94035279,45.9910539" id="Fill-24" fill="#000000" fill-rule="nonzero" mask="url(#mask-6)"></path>
                </g>
            </g>
            <g id="Group-34" transform="translate(17.425000, 41.650000)" fill-rule="nonzero">
                <path d="M1.80426121,2.62874021 L39.0152431,14.4367839 C39.0152431,14.4367839 40.0192664,12.8514742 40.3527666,11.8393718 L2.31281007,0.0376978513 C2.31281007,0.0376978513 1.96237404,0.496660971 1.80426121,2.62874021" id="Fill-28" fill="#FFFFFF"></path>
                <line x1="0.311192346" y1="3.07423785" x2="39.6859627" y2="15.5504184" id="Fill-30" fill="#FFE77E"></line>
                <polygon id="Fill-32" fill="#000000" points="39.3866999 16.5162409 0.0119295931 4.04006036 0.610577037 2.10838794 39.9853473 14.5845685"></polygon>
            </g>
        </g>
    </g>
</svg>