<svg xmlns="http://www.w3.org/2000/svg" viewBox="0 0 1180.41 330.54"><defs><style>.cls-1{fill:#0051ea;}.cls-2{fill:#222;}</style></defs><title>资源 3</title><g id="图层_2" data-name="图层 2"><g id="图层_1-2" data-name="图层 1"><path class="cls-1" d="M117.22,118.92a69.75,69.75,0,0,0-17-9.72q-9.39-3.77-18.64-6.69L67.3,97.9a70.31,70.31,0,0,1-11.88-5,27.16,27.16,0,0,1-8.13-6.44,13.69,13.69,0,0,1-3-9,18.52,18.52,0,0,1,6.5-14.34q6.51-5.82,19-5.83,21.25,0,33,18l28-21.79a117.76,117.76,0,0,0-11.64-10.64,69.8,69.8,0,0,0-13.51-8.38A77.65,77.65,0,0,0,89.45,29a90.49,90.49,0,0,0-19.89-2,72.55,72.55,0,0,0-24.15,3.89A59.52,59.52,0,0,0,26.15,41.74,49.5,49.5,0,0,0,13.51,57.89,44.83,44.83,0,0,0,9,77.81q0,12.63,4.63,21a45,45,0,0,0,12,14.1A61.9,61.9,0,0,0,42.28,122q9.26,3.39,18.52,6.31,7.26,2.19,14.14,4.37a72.57,72.57,0,0,1,12.13,5,28,28,0,0,1,8.51,6.68,14.31,14.31,0,0,1,3.25,9.47q0,9.22-7.13,16.52t-20.64,7.29a43.86,43.86,0,0,1-22.77-6.08A50.43,50.43,0,0,1,31,154.05L0,177.42A111.11,111.11,0,0,0,29.52,200.8q17,9.39,41.79,9.38a71.12,71.12,0,0,0,26.77-4.74,61.38,61.38,0,0,0,19.77-12.39,52.81,52.81,0,0,0,12.25-17.62A51.47,51.47,0,0,0,134.36,155q0-12.87-4.76-21.51A47.11,47.11,0,0,0,117.22,118.92Z"/><path class="cls-1" d="M309.45,207.28V146.33q0-19.74-10.58-31.08t-31.4-11.34a40.62,40.62,0,0,0-19.85,4.78,38.86,38.86,0,0,0-14,12.77,32.21,32.21,0,0,0-13-12.95q-8.37-4.61-20.55-4.6a38.57,38.57,0,0,0-17,3.63,35,35,0,0,0-12.43,9.87V104.08H147v103.2H170.8V151.43q0-13.44,6.62-20.16a22.41,22.41,0,0,1,16.67-6.72q10.75,0,16.23,6.2t5.46,17.06v59.47H240V150.92q0-13.28,6.53-19.82a22,22,0,0,1,16.23-6.55q11.1,0,16.75,6.46t5.65,17.49v58.78Z"/><path class="cls-1" d="M335,93.68q7.07,0,11-4.06t4-10.76a15,15,0,0,0-4-10.85q-4-4.14-11-4.15-6.87,0-10.93,4.15A14.84,14.84,0,0,0,320,78.86q0,6.7,3.88,10.76T335,93.68Z"/><rect class="cls-1" x="323.03" y="104.08" width="23.99" height="103.19"/><path class="cls-1" d="M487.78,118.05a49.85,49.85,0,0,0-16.85-10.42,59.35,59.35,0,0,0-21.25-3.72A54.62,54.62,0,0,0,411.58,119a51,51,0,0,0-15.53,36.9,51.5,51.5,0,0,0,4,20.14,49.59,49.59,0,0,0,11.11,16.41,51.73,51.73,0,0,0,17.2,11,59.78,59.78,0,0,0,22.23,4q17.28,0,29.37-7.67a53.5,53.5,0,0,0,18.78-20.2l-19.58-11.29a30.13,30.13,0,0,1-28.57,18.17q-12.71,0-21-6.7a30.61,30.61,0,0,1-10.76-17.64h84v-8.44a49,49,0,0,0-4-19.84A47.93,47.93,0,0,0,487.78,118.05ZM420,142.19a26,26,0,0,1,11-12.54q7.85-4.75,18.61-4.75,11.1,0,18.69,4.39a21.93,21.93,0,0,1,10.24,12.9Z"/><polygon class="cls-1" points="555.51 174.68 526.76 104.08 501.36 104.08 543.7 202.81 522 254.72 546.17 254.72 607.73 104.08 582.68 104.08 555.51 174.68"/><path class="cls-1" d="M380.24,254h22.69V230.66H390.12a4.48,4.48,0,0,1-4.47-4.48V76.74h-24V235.46A18.58,18.58,0,0,0,380.24,254Z"/><path class="cls-1" d="M378.58,304.4a57.85,57.85,0,0,1-57.78-57.78H294.66a83.92,83.92,0,0,0,167.84,0H436.36A57.85,57.85,0,0,1,378.58,304.4Z"/><path class="cls-2" d="M765.86,119.12a72,72,0,0,0-17.54-10q-9.68-3.88-19.22-6.89l-14.7-4.76a70.88,70.88,0,0,1-12.25-5.14,28.06,28.06,0,0,1-8.39-6.64,14.09,14.09,0,0,1-3.09-9.27,19.07,19.07,0,0,1,6.71-14.78q6.69-6,19.6-6,21.91,0,34,18.6l28.89-22.47a119.15,119.15,0,0,0-12-11A71.46,71.46,0,0,0,754,32.13a80.11,80.11,0,0,0-16.76-5.68c-.37-.08-.77-.14-1.14-.21V0H705.31V25.18a70.53,70.53,0,0,0-13.48,3.22A61.47,61.47,0,0,0,672,39.55a51.32,51.32,0,0,0-13,16.65,46.27,46.27,0,0,0-4.64,20.54q0,13,4.77,21.66a46.53,46.53,0,0,0,12.38,14.53,63.66,63.66,0,0,0,17.15,9.4q9.55,3.49,19.09,6.5,7.48,2.26,14.58,4.51a75.73,75.73,0,0,1,12.51,5.14,28.94,28.94,0,0,1,8.77,6.89,14.73,14.73,0,0,1,3.35,9.76q0,9.52-7.35,17t-21.28,7.51a45.12,45.12,0,0,1-23.47-6.27A51.89,51.89,0,0,1,677,155.34l-32,24.09a114.4,114.4,0,0,0,30.44,24.11,76.14,76.14,0,0,0,24.09,8.13v23h30.78V212.43a66.91,66.91,0,0,0,15.81-4.1,63.54,63.54,0,0,0,20.38-12.78,54.68,54.68,0,0,0,12.64-18.17,53.17,53.17,0,0,0,4.38-21q0-13.28-4.9-22.17A48.81,48.81,0,0,0,765.86,119.12Z"/><polygon class="cls-2" points="933.42 104.28 909.74 175.66 884.3 104.28 860.63 104.28 834.66 175.48 811.86 104.28 787.48 104.28 821.94 207.64 845.43 207.64 872.29 136.09 898.43 207.64 921.4 207.64 957.62 104.28 933.42 104.28"/><path class="cls-2" d="M1037.48,117.92a39.46,39.46,0,0,0-14.31-10.11,47.57,47.57,0,0,0-18.91-3.7,53.41,53.41,0,0,0-19,3.49A48.89,48.89,0,0,0,957.36,134,53.13,53.13,0,0,0,953,156.05a52,52,0,0,0,4.41,21.88,50.14,50.14,0,0,0,11.66,16.26,51.92,51.92,0,0,0,34.81,13.63,46.11,46.11,0,0,0,19.08-4,39,39,0,0,0,14.49-10.9v14.69h23.85V104.28h-23.85Zm-1.15,49.57a31.63,31.63,0,0,1-6.45,9.62,28.67,28.67,0,0,1-9.72,6.48,33.87,33.87,0,0,1-24.64,0,31,31,0,0,1-10-6.39,29.08,29.08,0,0,1-6.63-9.63,29.74,29.74,0,0,1-2.38-11.86,29.26,29.26,0,0,1,2.38-11.79,28.34,28.34,0,0,1,6.63-9.45,31.71,31.71,0,0,1,10-6.31,33.87,33.87,0,0,1,24.64,0,29.35,29.35,0,0,1,9.72,6.39,30.67,30.67,0,0,1,6.45,9.54,28.8,28.8,0,0,1,2.38,11.62A29.18,29.18,0,0,1,1036.33,167.49Z"/><path class="cls-2" d="M1176.08,134a50.44,50.44,0,0,0-11.4-16.27,48.82,48.82,0,0,0-16.25-10.13,52.78,52.78,0,0,0-18.91-3.49,44.23,44.23,0,0,0-19.34,4.18A39.13,39.13,0,0,0,1096,119.46V104.28h-23.67V255.17H1096V193.51a35.33,35.33,0,0,0,14.32,10.6,49.69,49.69,0,0,0,19.43,3.71,51.33,51.33,0,0,0,18.46-3.49,50,50,0,0,0,16.26-10.14A50.82,50.82,0,0,0,1176,177.93a52,52,0,0,0,4.42-21.88A53.29,53.29,0,0,0,1176.08,134Zm-21.56,33.57a29.21,29.21,0,0,1-6.62,9.63,31.45,31.45,0,0,1-9.9,6.39,31.92,31.92,0,0,1-12.19,2.32,32.31,32.31,0,0,1-12.36-2.32,28.57,28.57,0,0,1-9.72-6.48,30.26,30.26,0,0,1-8.66-21.4,29.78,29.78,0,0,1,2.3-11.62,29,29,0,0,1,16.08-15.93,32.12,32.12,0,0,1,12.36-2.32,31.73,31.73,0,0,1,12.19,2.32,32.14,32.14,0,0,1,9.9,6.31,28.46,28.46,0,0,1,6.62,9.45,29.27,29.27,0,0,1,2.39,11.79A29.74,29.74,0,0,1,1154.52,167.57Z"/></g></g></svg>