<?xml version="1.0" encoding="UTF-8"?>
<svg width="2614px" height="536px" viewBox="0 0 2614 536" version="1.1" xmlns="http://www.w3.org/2000/svg" xmlns:xlink="http://www.w3.org/1999/xlink">
    <title>logo new_white</title>
    <defs>
        <filter id="filter-1">
            <feColorMatrix in="SourceGraphic" type="matrix" values="0 0 0 0 1.000000 0 0 0 0 1.000000 0 0 0 0 1.000000 0 0 0 1.000000 0"></feColorMatrix>
        </filter>
        <polygon id="path-2" points="4.26751593e-05 0.181310422 536 0.181310422 536 535.754898 4.26751593e-05 535.754898"></polygon>
        <path d="M81.1048352,140.273223 C199.559188,182.252924 243.739908,73.7535397 243.739908,73.7535397 L243.739908,73.7535397 L3.29601044,0.294241351 C3.29601044,0.294241351 -24.0181225,103.01914 81.1048352,140.273223" id="path-4"></path>
        <path d="M81.1048352,140.273223 C199.559188,182.252924 243.739908,73.7535397 243.739908,73.7535397 L243.739908,73.7535397 L3.29601044,0.294241351 C3.29601044,0.294241351 -24.0181225,103.01914 81.1048352,140.273223" id="path-6"></path>
    </defs>
    <g id="logo-new_white" stroke="none" stroke-width="1" fill="none" fill-rule="evenodd">
        <g id="Group">
            <g filter="url(#filter-1)" id="smiley-swap的副本">
                <g transform="translate(663.000000, 60.000000)">
                    <path d="M192.314063,195.103125 C183.81335,188.502387 174.42396,183.133865 164.423438,179.15625 C154.153125,175.032813 143.959375,171.374219 133.842188,168.180469 L110.414063,160.617188 C103.679728,158.485344 97.1554456,155.739433 90.9234375,152.414063 C85.8399275,149.781684 81.3112776,146.194414 77.5851562,141.848438 C74.2370927,137.670505 72.4915901,132.433997 72.6632812,127.082813 C72.5416516,118.044815 76.4502357,109.421877 83.3273437,103.55625 C90.4476562,97.190625 100.838281,94.0023438 114.499219,93.9914063 C137.741406,93.9914063 155.788281,103.835156 168.639844,123.522656 L214.577344,87.7734375 C208.608926,81.5345091 202.228998,75.7026856 195.480469,70.3171875 C188.639902,64.9051921 181.203398,60.2924678 173.315625,56.56875 C164.819535,52.6035773 155.911677,49.5884407 146.753906,47.578125 C136.031126,45.2825782 125.087019,44.182115 114.121875,44.296875 C100.64882,44.166366 87.2514016,46.3243767 74.5007813,50.6789063 C62.9488319,54.5873265 52.2312069,60.6250332 42.9023438,68.4796875 C34.2159778,75.7672169 27.1518887,84.792932 22.1648438,94.9757813 C17.2166861,105.155099 14.6845717,116.339072 14.765625,127.657031 C14.765625,141.471094 17.2976563,152.955469 22.3617188,162.110156 C27.2498032,171.102391 33.9541917,178.980047 42.0492188,185.242969 C50.3343645,191.588043 59.5480008,196.618191 69.365625,200.15625 C79.49375,203.864063 89.621875,207.314844 99.75,210.508594 C107.690625,212.903906 115.423438,215.29375 122.948438,217.678125 C129.816108,219.80601 136.476916,222.551603 142.849219,225.88125 C148.171328,228.592002 152.913741,232.314601 156.810937,236.840625 C160.401145,241.208518 162.294458,246.725341 162.142969,252.377344 C162.142969,262.461719 158.24375,271.496094 150.445312,279.480469 C142.646875,287.464844 131.359375,291.451562 116.582812,291.440625 C103.453619,291.586128 90.5348558,288.136585 79.2257812,281.465625 C67.5432347,274.379088 57.7976408,264.50949 50.859375,252.738281 L0,291.079687 C13.8436908,306.528115 30.2226233,319.500318 48.43125,329.4375 C67.025,339.707813 89.8789063,344.8375 116.992969,344.826563 C131.996667,345.082644 146.908913,342.442224 160.9125,337.05 C172.92442,332.410302 183.93502,325.50988 193.347656,316.722656 C201.954736,308.563768 208.795164,298.72472 213.445312,287.814844 C218.039397,277.236673 220.417971,265.82957 220.434375,254.296875 C220.434375,240.220313 217.83125,228.457031 212.625,219.007031 C207.559732,209.734532 200.647081,201.599045 192.314063,195.103125 Z" id="Path" fill="#0051EA" fill-rule="nonzero"></path>
                    <path d="M507.691406,340.06875 L507.691406,240.072656 C507.691406,218.482031 501.905469,201.485156 490.333594,189.082031 C478.761719,176.678906 461.589844,170.477344 438.817969,170.477344 C427.471866,170.276053 416.262291,172.975386 406.251563,178.319531 C396.983824,183.300837 389.092985,190.49841 383.282812,199.270312 C378.383725,190.270199 370.973613,182.888588 361.954687,178.024219 C352.8,172.982031 341.561719,170.466857 328.239844,170.477344 C318.610914,170.314323 309.071796,172.351206 300.349219,176.432812 C292.401223,180.197588 285.424182,185.737683 279.95625,192.625781 L279.95625,170.75625 L241.171875,170.75625 L241.171875,340.06875 L280.21875,340.06875 L280.21875,248.439844 C280.21875,233.739844 283.839063,222.714844 291.079688,215.364844 C298.258487,208.034863 308.173536,204.037915 318.428906,204.339844 C330.186719,204.339844 339.0625,207.730469 345.05625,214.511719 C351.05,221.292969 354.035938,230.622656 354.014063,242.500781 L354.014063,340.06875 L393.75,340.06875 L393.75,247.603125 C393.75,233.078125 397.321094,222.239062 404.463281,215.085938 C411.470975,207.975606 421.110656,204.085285 431.090625,204.339844 C443.23125,204.339844 452.391406,207.872656 458.571094,214.938281 C464.750781,222.003906 467.840625,231.56875 467.840625,243.632813 L467.840625,340.06875 L507.691406,340.06875 Z" id="Path" fill="#0051EA" fill-rule="nonzero"></path>
                    <path d="M549.609375,153.69375 C557.342187,153.69375 563.357812,151.473437 567.65625,147.032812 C571.954687,142.592187 574.142187,136.707812 574.21875,129.379687 C574.498263,122.807485 572.134928,116.396937 567.65625,111.578906 C563.28125,107.050781 557.265625,104.78125 549.609375,104.770313 C542.095312,104.770313 536.117969,107.039844 531.677344,111.578906 C527.131096,116.362343 524.72135,122.786358 525,129.379687 C525,136.707812 527.121875,142.592187 531.365625,147.032812 C535.609375,151.473437 541.690625,153.69375 549.609375,153.69375 Z" id="Path" fill="#0051EA" fill-rule="nonzero"></path>
                    <rect id="Rectangle" fill="#0051EA" fill-rule="nonzero" x="529.971094" y="170.75625" width="39.3585938" height="169.296094"></rect>
                    <path d="M813.389062,193.675781 C805.410778,186.185194 796.01032,180.371973 785.744531,176.580469 C774.593863,172.433364 762.777603,170.364823 750.88125,170.477344 C727.621913,170.304477 705.206684,179.18232 688.373437,195.234375 C671.983897,211.097711 662.7809,232.964458 662.893491,255.773437 C662.841907,267.116347 665.07376,278.353728 669.457031,288.815625 C673.659525,298.924806 679.859074,308.081836 687.684375,315.738281 C695.798318,323.568821 705.391375,329.703915 715.903125,333.785156 C727.532693,338.270327 739.910626,340.497576 752.374219,340.347656 C771.274219,340.347656 787.335937,336.153125 800.559375,327.764062 C813.549656,319.599923 824.173003,308.173319 831.370312,294.623437 L799.246875,276.100781 C791.211125,294.706832 772.632159,306.522716 752.374219,305.910937 C738.472656,305.910937 726.988281,302.246875 717.921094,294.91875 C708.860197,287.60957 702.62009,277.379506 700.267969,265.978125 L838.080469,265.978125 L838.080469,252.13125 C838.181991,240.942787 835.946819,229.856332 831.517969,219.58125 C827.291316,209.807705 821.123686,200.994413 813.389062,193.675781 L813.389062,193.675781 Z M702.1875,233.280469 C705.780254,224.626682 712.122424,217.396609 720.234375,212.707031 C728.820312,207.511719 738.997656,204.914062 750.766406,204.914062 C762.907031,204.914062 773.128125,207.314844 781.429687,212.116406 C789.566768,216.720369 795.592169,224.310963 798.229687,233.280469 L702.1875,233.280469 Z" id="Shape" fill="#0051EA" fill-rule="nonzero"></path>
                    <polygon id="Path" fill="#0051EA" fill-rule="nonzero" points="924.508594 286.584375 877.340625 170.75625 835.66875 170.75625 905.132813 332.735156 869.53125 417.9 909.185156 417.9 1010.18203 170.75625 969.084375 170.75625"></polygon>
                    <path d="M661.057031,342.89063 L661.057031,304.598438 L640.040625,304.598438 C635.987741,304.589391 632.707021,301.301332 632.707031,297.248438 L632.460938,129.609375 L593.085937,129.609375 L593.332031,312.473438 C593.368231,329.289402 607.015249,342.899715 623.83125,342.89063 L661.057031,342.89063 Z" id="Path" fill="#0051EA" fill-rule="nonzero"></path>
                    <path d="M1269.61406,195.43125 C1260.84007,188.638039 1251.15266,183.114999 1240.8375,179.025 C1230.25,174.78125 1219.73906,171.013281 1209.30469,167.721094 L1185.1875,159.911719 C1178.23905,157.736164 1171.51029,154.912829 1165.08984,151.478906 C1159.84531,148.764149 1155.17208,145.065674 1151.325,140.585156 C1147.87511,136.282637 1146.07707,130.888509 1146.25547,125.376562 C1146.13021,116.057544 1150.16606,107.167843 1157.26406,101.128125 C1164.58125,94.565625 1175.3,91.284375 1189.42031,91.284375 C1213.38438,91.284375 1231.97813,101.45625 1245.20156,121.8 L1292.59922,84.9351562 C1286.45581,78.4777421 1279.87797,72.4480481 1272.91172,66.8882812 C1265.89353,61.3087134 1258.25847,56.5526254 1250.15625,52.7132813 C1241.36289,48.6011116 1232.14101,45.4757982 1222.65938,43.3945313 C1222.05234,43.2632813 1221.39609,43.1648438 1220.78906,43.05 L1220.78906,-2.33146835e-14 L1170.27422,-2.33146835e-14 L1170.27422,41.3109375 C1162.74679,42.3415561 1155.33916,44.1110342 1148.15859,46.59375 C1136.27034,50.6140584 1125.23689,56.8179412 1115.625,64.8867187 C1106.6983,72.4146852 1099.43509,81.7171863 1094.29688,92.203125 C1089.20309,102.701554 1086.59814,114.232963 1086.68438,125.901562 C1086.68438,140.120312 1089.29297,151.965625 1094.51016,161.4375 C1099.56026,170.701883 1106.47608,178.818759 1114.82109,185.275781 C1123.34967,191.834979 1132.84055,197.036977 1142.95781,200.697656 C1153.40313,204.514844 1163.84297,208.069531 1174.27734,211.361719 C1182.45859,213.833594 1190.43203,216.3 1198.19766,218.760937 C1205.27688,220.954116 1212.14567,223.776305 1218.72188,227.19375 C1224.20552,229.993186 1229.09234,233.832435 1233.11016,238.497656 C1236.81297,242.997864 1238.76486,248.68456 1238.60625,254.510156 C1238.60625,264.922656 1234.58672,274.219531 1226.54766,282.400781 C1218.50859,290.582031 1206.87109,294.689062 1191.63516,294.721875 C1178.10094,294.877722 1164.78303,291.31985 1153.12969,284.435156 C1141.06469,277.152272 1130.99639,266.988139 1123.82812,254.854688 L1071.32812,294.377344 C1085.59926,310.31208 1102.4894,323.689915 1121.26875,333.932813 C1133.60228,340.562615 1146.96273,345.071558 1160.79141,347.271094 L1160.79141,385.005469 L1211.28984,385.005469 L1211.28984,348.517969 C1220.17819,347.343425 1228.88916,345.084412 1237.22813,341.791406 C1249.60683,336.995099 1260.95549,329.878523 1270.66406,320.824219 C1279.53647,312.405099 1286.59353,302.260575 1291.40156,291.014062 C1296.1128,280.137189 1298.55786,268.414258 1298.5875,256.560937 C1298.5875,242.035937 1295.90781,229.911719 1290.54844,220.188281 C1285.33135,210.594866 1278.20723,202.169876 1269.61406,195.43125 Z" id="Path" fill="#222222" fill-rule="nonzero"></path>
                    <polygon id="Path" fill="#222222" fill-rule="nonzero" points="1544.51719 171.084375 1505.66719 288.192188 1463.92969 171.084375 1425.09609 171.084375 1382.48906 287.896875 1345.08281 171.084375 1305.08437 171.084375 1361.62031 340.659375 1400.15859 340.659375 1444.22578 223.272656 1487.11172 340.659375 1524.79687 340.659375 1584.22031 171.084375"></polygon>
                    <path d="M1715.24062,193.4625 C1708.75671,186.244095 1700.73317,180.575467 1691.76328,176.875781 C1681.94425,172.757169 1671.38629,170.69136 1660.73906,170.805469 C1650.08678,170.803483 1639.52341,172.743808 1629.56719,176.53125 C1609.03939,184.119489 1592.50368,199.766182 1583.79375,219.84375 C1578.85675,231.254219 1576.4178,243.588797 1576.64062,256.019531 C1576.42564,268.367799 1578.89421,280.615526 1583.87578,291.916406 C1588.39533,302.003504 1594.90141,311.076308 1603.00547,318.592969 C1618.60527,332.879432 1638.9627,340.850468 1660.11562,340.956213 C1670.89846,341.023164 1681.57134,338.785663 1691.41875,334.392187 C1700.63786,330.381692 1708.78217,324.25519 1715.19141,316.509375 L1715.19141,340.610156 L1754.32031,340.610156 L1754.32031,171.084375 L1715.19141,171.084375 L1715.24062,193.4625 Z M1713.35391,274.788281 C1710.82806,280.655696 1707.24058,286.006321 1702.77187,290.571094 C1698.24221,295.171727 1692.81392,298.790589 1686.825,301.202344 C1673.82789,306.277621 1659.39711,306.277621 1646.4,301.202344 C1640.30716,298.796947 1634.73635,295.237201 1629.99375,290.71875 C1625.33576,286.243041 1621.6352,280.868018 1619.11641,274.919531 C1616.49561,268.769575 1615.16656,262.146663 1615.21172,255.461719 C1615.15973,248.813232 1616.48938,242.226434 1619.11641,236.11875 C1621.6401,230.259244 1625.34268,224.981809 1629.99375,220.614844 C1634.76506,216.165941 1640.33055,212.654116 1646.4,210.2625 C1659.39711,205.187223 1673.82789,205.187223 1686.825,210.2625 C1692.78682,212.658111 1698.20892,216.222638 1702.77187,220.746094 C1707.25583,225.248327 1710.84645,230.559113 1713.35391,236.397656 C1715.96413,242.412583 1717.29389,248.904939 1717.25859,255.461719 C1717.31214,262.105053 1715.98237,268.686813 1713.35391,274.788281 L1713.35391,274.788281 Z" id="Shape" fill="#222222" fill-rule="nonzero"></path>
                    <path d="M1942.63125,219.84375 C1938.22807,209.794195 1931.8704,200.720576 1923.92812,193.150781 C1916.22565,185.905329 1907.16466,180.25685 1897.26797,176.53125 C1887.36442,172.739021 1876.84852,170.79959 1866.24375,170.805469 C1855.28502,170.665976 1844.43704,173.010575 1834.51406,177.663281 C1825.43712,181.875288 1817.47047,188.150848 1811.25,195.989062 L1811.25,171.084375 L1772.41641,171.084375 L1772.41641,418.638281 L1811.25,418.638281 L1811.25,317.477344 C1817.46702,325.186043 1825.55545,331.173289 1834.74375,334.867969 C1844.85423,339.012747 1855.69477,341.082661 1866.62109,340.954687 C1876.98269,340.925544 1887.24994,338.984444 1896.90703,335.228906 C1906.78862,331.455373 1915.84714,325.806333 1923.58359,318.592969 C1931.58823,311.036686 1938.01734,301.970128 1942.5,291.916406 C1947.4872,280.616786 1949.96139,268.369008 1949.75156,256.019531 C1949.97665,243.591891 1947.54924,231.259103 1942.63125,219.84375 Z M1907.25938,274.919531 C1904.74023,280.863751 1901.046,286.237682 1896.39844,290.71875 C1891.69321,295.205353 1886.18244,298.762301 1880.15625,301.202344 C1873.80301,303.767127 1867.00824,305.060308 1860.15703,305.008594 C1853.2136,305.080245 1846.32374,303.787002 1839.87891,301.202344 C1833.88778,298.794771 1828.45868,295.175371 1823.93203,290.571094 C1814.74252,281.205358 1809.63441,268.582545 1809.72422,255.461719 C1809.69275,248.918464 1810.97595,242.43555 1813.49766,236.397656 C1818.38824,224.472112 1827.90805,215.0411 1839.87891,210.2625 C1846.32145,207.669979 1853.21289,206.37644 1860.15703,206.45625 C1867.00897,206.396399 1873.80532,207.689879 1880.15625,210.2625 C1886.15998,212.686818 1891.66588,216.196132 1896.39844,220.614844 C1901.03935,224.987046 1904.73561,230.26343 1907.25937,236.11875 C1909.89157,242.225372 1911.2268,248.81212 1911.18047,255.461719 C1911.22044,262.147809 1909.8858,268.770766 1907.25937,274.919531 L1907.25938,274.919531 Z" id="Shape" fill="#222222" fill-rule="nonzero"></path>
                </g>
            </g>
            <g id="smiley-loading">
                <g id="smiley-swap" transform="translate(46.000000, 121.000000)" fill="#FFFFFF" fill-rule="nonzero">
                    <path d="M133.02223,88.9946258 C133.038224,101.918866 143.755639,112.392135 156.981159,112.407764 C170.20668,112.392135 180.924095,101.918866 180.940089,88.9946258 L180.940089,88.9946258 L191.779244,88.9946258 C191.779244,107.775276 176.19961,123 156.981159,123 C137.762708,123 122.183075,107.775276 122.183075,88.9946258 L122.183075,88.9946258 L133.02223,88.9946258 Z M218.425156,31.2357345 L230.346568,59.8436882 L241.612821,31.2357345 L252,31.2357345 L226.473664,92.2768415 L216.451385,92.2768415 L225.449459,71.2422966 L207.892847,31.2357345 L218.425156,31.2357345 Z M159.91279,20.1572435 L159.91279,80.7120965 C159.912788,81.7131055 160.741969,82.5252109 161.766311,82.5274455 L161.766311,82.5274455 L167.078077,82.5274455 L167.078077,91.9850912 L157.669491,91.9850912 C153.419351,91.987334 149.970152,88.6257743 149.961002,84.4724621 L149.961002,84.4724621 L149.961002,20.1572435 L159.91279,20.1572435 Z M28.8435983,0.00200804032 C31.6149707,-0.026336102 34.3810259,0.245463163 37.0911425,0.812431661 C39.4057124,1.30895199 41.6571184,2.05364926 43.8044525,3.03299237 C45.7980385,3.95269947 47.6775689,5.09197892 49.4064798,6.42866736 C51.1121289,7.75881131 52.7246161,9.19919153 54.2330969,10.740121 L54.2330969,10.740121 L42.6226779,19.5696864 C39.374525,14.7071447 34.8132888,12.2758738 28.9389696,12.2758738 C25.4862521,12.2785752 22.8600859,13.0660368 21.0604709,14.6382586 C19.3223244,16.0869878 18.3344539,18.2167349 18.3651951,20.448996 C18.3218012,21.7706649 18.7629662,23.0640104 19.6091685,24.0959023 C20.5509227,25.1692987 21.6955109,26.055305 22.9803367,26.7054664 C24.5554382,27.5267871 26.2044103,28.2049894 27.9064717,28.7315253 L27.9064717,28.7315253 L33.8277854,30.5995517 C36.384842,31.3883641 38.9612492,32.2919866 41.5570071,33.3104188 C44.0845773,34.292835 46.4576876,35.618786 48.6061903,37.2490777 C50.7123092,38.8534807 52.4594389,40.8628338 53.7396541,43.1530138 C55.0555016,45.4870338 55.7134254,48.3924026 55.7134254,51.8691198 C55.7092792,54.7175367 55.1081096,57.5349343 53.9469831,60.1475971 C52.7716867,62.8421864 51.0428107,65.2722961 48.8674247,67.2874292 C46.4884391,69.4577527 43.7055782,71.1620618 40.6696395,72.3080036 C37.1303194,73.6398088 33.3613414,74.2919561 29.5692495,74.2287074 C22.7163378,74.2314089 16.9401543,72.9644466 12.240699,70.4278208 C7.63858116,67.9734734 3.49890724,64.7695175 -1.42108547e-13,60.9539685 L-1.42108547e-13,60.9539685 L12.8543926,51.4841686 C14.6079964,54.3914952 17.071135,56.8291504 20.0238264,58.5794273 C22.882125,60.2270628 26.1472627,61.0790523 29.465585,61.0431152 C33.2002697,61.0458166 36.0531156,60.0611519 38.0241226,58.089121 C39.9951294,56.1170903 40.9806327,53.8857238 40.9806327,51.3950219 C41.0189209,49.9990551 40.5403979,48.6364758 39.6329949,47.557666 C38.6480025,46.4398006 37.449387,45.5203697 36.1042569,44.8508513 C34.4936967,44.0284741 32.8102188,43.3503505 31.0744575,42.8247921 C29.1725602,42.2358844 27.2181396,41.6456258 25.2111958,41.0540167 C22.6513748,40.2652043 20.0915538,39.4129087 17.5317328,38.4971301 C15.050389,37.623278 12.7216994,36.3809007 10.62768,34.8137548 C8.58171204,33.2668993 6.88721927,31.3212264 5.65178616,29.1002681 C4.37187567,26.8391861 3.73192044,24.0027036 3.73192044,20.5908201 C3.71143469,17.7954399 4.35141097,15.0331523 5.60202721,12.5190009 C6.86247199,10.0039772 8.64787684,7.77474965 10.8433021,5.97483014 C13.2011146,4.03483855 15.9099281,2.54360803 18.8296118,1.57828198 C22.0522523,0.502773067 25.4383669,-0.0302258799 28.8435983,0.00200804032 Z M186.463331,31.1668483 C189.47006,31.1390573 192.456547,31.6499584 195.27481,32.6742363 C197.869424,33.6106856 200.245332,35.0464713 202.261794,36.8965434 C204.216672,38.7041447 205.775502,40.8809068 206.843763,43.2948379 C207.963127,45.8326418 208.528053,48.5708435 208.502394,51.3342401 L208.502394,51.3342401 L208.502394,54.7542278 L173.671137,54.7542278 C174.265621,57.570212 175.84277,60.0968973 178.132855,61.9021643 C180.424531,63.7121103 183.327136,64.6170834 186.840669,64.6170834 C191.960738,64.7681843 196.656457,61.8498235 198.687444,57.2543847 L198.687444,57.2543847 L206.806444,61.8292261 C204.987368,65.1758606 202.302383,67.9980745 199.01917,70.0145047 C195.677028,72.0864878 191.617527,73.1224794 186.840669,73.1224794 C183.690573,73.1595072 180.562127,72.6094076 177.622826,71.5016319 C174.966046,70.4936215 172.54146,68.9783377 170.490711,67.044302 C168.512915,65.1532655 166.946017,62.8916049 165.883863,60.3947763 C164.776018,57.8108316 164.211931,55.0353529 164.224711,52.2338105 C164.196512,46.6003062 166.522513,41.1995204 170.664868,37.2814947 C174.919366,33.3168579 180.584677,31.1241526 186.463331,31.1668483 Z M110.908529,31.1668483 C116.663979,31.1668483 121.004064,32.6985492 123.928784,35.7619503 C126.853504,38.8253516 128.315864,43.0233459 128.315864,48.3559334 L128.315864,48.3559334 L128.315864,73.0535932 L118.243826,73.0535932 L118.243826,49.235243 C118.243826,46.2555856 117.462886,43.8932006 115.901009,42.1480883 C114.339131,40.4029764 112.023958,39.5304202 108.95549,39.5304202 C106.433114,39.4675477 103.996745,40.4284034 102.225593,42.1845576 C100.42045,43.9512809 99.5178779,46.6283804 99.5178779,50.2158557 L99.5178779,50.2158557 L99.5178779,73.0535932 L89.4748656,73.0535932 L89.4748656,48.9556469 C89.4803943,46.0219134 88.725717,43.717609 87.2108338,42.0427335 C85.6959505,40.367858 83.4526516,39.5304202 80.4809373,39.5304202 C77.8889559,39.4558478 75.3829886,40.4430391 73.5685913,42.2534434 C71.7385681,44.0687924 70.8235566,46.7918159 70.8235566,50.4225136 L70.8235566,50.4225136 L70.8235566,73.0535932 L60.9547002,73.0535932 L60.9547002,31.2357345 L70.7572112,31.2357345 L70.7572112,36.6372078 C72.1391971,34.9359424 73.9026012,33.567615 75.9114079,32.6377674 C78.1159854,31.6296666 80.5269386,31.1265846 82.9605911,31.1668483 C86.3276127,31.1642581 89.1680186,31.7854718 91.4818094,33.0308227 C93.7612872,34.2322549 95.6341469,36.0554114 96.872361,38.2783155 C98.3408462,36.1117764 100.335207,34.3340748 102.677571,33.1037609 C105.20772,31.7838305 108.040871,31.1171323 110.908529,31.1668483 Z M143.894558,31.2357345 L143.894558,73.0495412 L133.946917,73.0495412 L133.946917,31.2357345 L143.894558,31.2357345 Z M186.434305,39.6722443 C183.459826,39.6722443 180.887565,40.3138297 178.717523,41.5970005 C176.667277,42.7552618 175.064333,44.5409902 174.156287,46.6783564 L174.156287,46.6783564 L198.430356,46.6783564 C197.763739,44.4630117 196.240856,42.5882398 194.18426,41.4511241 C192.086091,40.2652043 189.502773,39.6722443 186.434305,39.6722443 Z M138.910372,14.9381154 C140.845441,14.9408168 142.365853,15.5013598 143.471607,16.6197444 C144.603566,17.8097318 145.200884,19.3930488 145.130239,21.0162925 C145.110888,22.8262386 144.558011,24.2795983 143.471607,25.3763716 C142.385204,26.4731449 140.864792,27.0215315 138.910372,27.0215315 C136.908956,27.0215315 135.371958,26.4731449 134.299376,25.3763716 C133.226795,24.2795983 132.690504,22.8262386 132.690504,21.0162925 C132.620077,19.3878307 133.229125,17.8011876 134.378161,16.6197444 C135.500502,15.4986584 137.011239,14.9381154 138.910372,14.9381154 Z" id="Combined-Shape"></path>
                </g>
                <g id="Group-35">
                    <g id="Group-20">
                        <path d="M511.827681,268.981687 C511.848164,404.116795 402.22891,513.681676 266.986209,513.702145 C131.743081,513.722186 22.0909669,404.190139 22.0704828,269.055028 C22.0499987,133.920346 131.670107,24.3550384 266.912381,24.334997 C402.155081,24.3145292 511.807195,133.846577 511.827681,268.981687" id="Fill-1" fill="#FFE77E" fill-rule="nonzero"></path>
                        <path d="M470.819114,134.569431 C470.819114,134.569431 554.941669,426.496693 254.37412,510.553175 C254.37412,510.553175 426.738236,535.731105 496.076407,357.1962 C496.076407,357.1962 561.225586,279.475773 470.819114,134.569431" id="Fill-3" fill="#EAA549" fill-rule="nonzero"></path>
                        <g id="Fill-5-Clipped">
                            <mask id="mask-3" fill="white">
                                <use xlink:href="#path-2"></use>
                            </mask>
                            <g id="path-1"></g>
                            <path d="M267.963342,25.3848236 C134.096915,25.4048649 25.203565,134.243567 25.2231955,268.00435 C25.2436796,401.765559 134.16989,510.571426 268.036743,510.551811 C401.902743,510.531344 510.796522,401.693068 510.776462,267.931859 C510.756405,134.17065 401.829769,25.3647822 267.963342,25.3848236 M268.040583,535.754898 C120.264616,535.777072 0.022233758,415.666593 4.26751593e-05,268.008187 C-0.0221484076,120.350208 120.18396,0.203483851 267.959501,0.181310422 C415.735043,0.159136993 535.977852,120.270042 536.000043,267.928022 C536.022233,415.586 415.816126,535.732724 268.040583,535.754898" id="Fill-5" fill="#000000" fill-rule="nonzero" mask="url(#mask-3)"></path>
                        </g>
                        <polyline id="Fill-8" fill="#FFE77E" fill-rule="nonzero" points="169.184517 112.561535 202.82193 152.462194 152.379039 181.873541"></polyline>
                        <polygon id="Fill-10" fill="#000000" fill-rule="nonzero" points="157.676392 190.94371 147.081857 172.803714 186.736468 149.682371 161.147162 119.327373 177.222041 105.796038 218.907137 155.241932"></polygon>
                        <polyline id="Fill-12" fill="#FFE77E" fill-rule="nonzero" points="413.022183 181.834567 358.374507 202.845597 385.707093 251.14828"></polyline>
                        <polygon id="Fill-14" fill="#000000" fill-rule="nonzero" points="376.559119 256.317204 343.228538 197.416902 409.24829 172.034296 416.796671 191.63518 373.520222 208.274633 394.855241 245.979269"></polygon>
                        <path d="M251.953457,426.95364 C234.405005,426.956195 215.76791,423.473261 196.55598,416.599924 C137.703521,395.5454 117.843782,354.702797 111.545782,324.146533 C104.820604,291.511083 111.889744,264.007503 112.193591,262.85278 L114.983693,252.261556 L376.619974,332.953222 L372.345628,343.545724 C370.972769,346.950198 337.719431,426.940844 251.953457,426.95364" id="Fill-16" fill="#FF99C3" fill-rule="nonzero"></path>
                        <path d="M107.60934,238.996047 L102.029136,260.179346 C101.699684,261.431292 94.0352255,291.245599 101.252875,326.264267 C108.094557,359.457037 129.56699,403.788117 193.015136,426.48731 C213.36564,433.767444 233.196359,437.457614 251.955079,437.455059 C290.553481,437.449086 325.358914,421.820658 352.608283,392.260065 C372.681398,370.4832 381.719143,348.400172 382.094683,347.470592 L390.639957,326.286438 L368.798386,319.550408 L128.556015,245.45619 L107.60934,238.996047 Z M122.357022,265.525275 L362.598964,339.619066 C362.598964,339.619066 331.609543,416.440188 251.951665,416.452558 C236.533983,416.454687 219.294073,413.579816 200.100066,406.713303 C95.0662574,369.137017 122.357022,265.525275 122.357022,265.525275 L122.357022,265.525275 Z" id="Fill-18" fill="#000000" fill-rule="nonzero"></path>
                    </g>
                    <g id="Group-27" transform="translate(120.600000, 265.320000)">
                        <g id="Fill-21-Clipped">
                            <mask id="mask-5" fill="white">
                                <use xlink:href="#path-4"></use>
                            </mask>
                            <g id="path-3"></g>
                            <path d="M199.558974,179.628046 C199.567944,237.131093 135.462527,283.755664 56.3762149,283.767506 C-22.7105242,283.778915 -86.8296086,237.173369 -86.8385781,179.670745 C-86.8471203,122.167699 -22.7425575,75.5431274 56.3441814,75.5312854 C135.430493,75.5194528 199.550005,122.125 199.558974,179.628046" id="Fill-21" fill="#F44764" fill-rule="nonzero" mask="url(#mask-5)"></path>
                        </g>
                        <g id="Fill-24-Clipped">
                            <mask id="mask-7" fill="white">
                                <use xlink:href="#path-6"></use>
                            </mask>
                            <g id="path-5"></g>
                            <path d="M56.3452065,81.7783766 C-19.1345856,81.7893723 -80.5359671,125.704049 -80.528279,179.67028 C-80.5197368,233.636089 -19.1042608,277.530895 56.3746772,277.519909 C131.854469,277.50849 193.256278,233.595081 193.248163,179.629272 C193.240048,125.663464 131.824572,81.7673888 56.3452065,81.7783766 M56.3768129,290.014173 C-26.0627423,290.026006 -93.1412742,240.52624 -93.1506708,179.671971 C-93.15964,118.816433 -26.0964841,69.2967978 56.3430711,69.2845332 C138.783053,69.2722777 205.861158,118.772044 205.870555,179.627159 C205.879524,240.481851 138.816795,290.001487 56.3768129,290.014173" id="Fill-24" fill="#000000" fill-rule="nonzero" mask="url(#mask-7)"></path>
                        </g>
                    </g>
                    <g id="Group-34" transform="translate(109.880000, 262.640000)" fill-rule="nonzero">
                        <path d="M11.3774589,16.5765265 L246.025533,91.0366608 C246.025533,91.0366608 252.356786,81.0398843 254.459799,74.6576859 L14.5843082,0.237718215 C14.5843082,0.237718215 12.3744998,3.13188565 11.3774589,16.5765265" id="Fill-28" fill="#FFFFFF"></path>
                        <line x1="1.96234232" y1="19.3857822" x2="250.255012" y2="98.0591091" id="Fill-30" fill="#FFE77E"></line>
                        <polygon id="Fill-32" fill="#000000" points="248.367896 104.149472 0.0752266108 25.4761453 3.85022696 13.2952463 252.142896 91.9685732"></polygon>
                    </g>
                </g>
            </g>
        </g>
    </g>
</svg>