<?xml version="1.0" encoding="UTF-8"?>
<svg width="200px" height="200px" viewBox="0 0 200 200" version="1.1" xmlns="http://www.w3.org/2000/svg" xmlns:xlink="http://www.w3.org/1999/xlink">
    <title>DAI-USDT</title>
    <g id="DAI-USDT" stroke="none" stroke-width="1" fill="none" fill-rule="evenodd">
        <g id="Group-Copy" fill="#F9BF4A" fill-rule="nonzero">
            <path d="M37,0 C57.4345508,0 74,16.5654492 74,37 C74,57.4345508 57.4345508,74 37,74 C16.5654492,74 0,57.4345508 0,37 C0,16.5654492 16.5654492,0 37,0 Z M37.5839063,20.5555234 L25.8356836,20.5555234 L25.8355391,31.1807383 L23.2962695,31.1807383 L23.2962695,34.2515938 L25.8355391,34.2515938 L25.8355391,38.8578047 L23.2962695,38.8578047 L23.2962695,41.9287324 L25.8355391,41.9287324 L25.8356113,53.4444766 L37.2167969,53.4444766 L37.3706504,53.4439707 C42.435459,53.4139082 46.3308652,51.8944512 49.0567246,48.9302598 C50.7567012,47.074334 51.9139629,44.7320605 52.5159355,41.9287324 L56.1852227,41.9287324 L56.1852227,38.857877 L52.9406406,38.8579492 C52.9824824,38.2554707 53.0035117,37.636082 53.0035117,37 C53.0035117,36.0440703 52.960875,35.1277422 52.8761074,34.2515215 L56.1852227,34.2515215 L56.1852227,31.1807383 L52.3670684,31.180666 C51.7701543,28.7301387 50.7554004,26.6869727 49.3321289,25.0697402 C46.6704414,22.0295254 42.7696875,20.5555234 37.5839063,20.5555234 L37.5839063,20.5555234 Z M29.5985547,41.9286602 L48.7161367,41.9288047 C48.2092656,43.8831562 47.3685996,45.4982207 46.2114102,46.7653262 C44.054498,49.0223984 40.8420742,50.1739512 36.5741387,50.1739512 L29.5985547,50.1739512 L29.5985547,41.9286602 L29.5985547,41.9286602 Z M49.1471289,34.2515215 C49.2397012,35.1120605 49.2862402,36.0282441 49.2862402,37 L49.2859512,37.1281992 C49.2829883,37.7246797 49.2593574,38.3012148 49.2154199,38.857877 L29.5985547,38.857877 L29.5985547,34.2515215 L49.1471289,34.2515215 Z M36.9872813,23.8260488 C41.3010332,23.8260488 44.4216797,24.9314961 46.4409258,27.1885684 L46.4970762,27.2525234 C47.400541,28.291125 48.0880762,29.6005059 48.5544785,31.180666 L29.5985547,31.180666 L29.5985547,23.8260488 L36.9872813,23.8260488 Z" id="Shape"></path>
        </g>
        <g id="Group" fill-rule="nonzero">
            <path d="M0,37 C0,57.4345357 16.5654643,74 37,74 C57.4345357,74 74,57.4345357 74,37 C74,16.5654643 57.4345357,0 37,0 C16.5654643,0 0,16.5654643 0,37 Z" id="Path" fill="#1BA27A"></path>
            <path d="M18.5,18.5 L55.5,18.5 L55.5,27.75 L18.5,27.75 L18.5,18.5 Z M41.625,41.625 C41.625,41.625 39.775,41.9333334 37,41.9333334 C34.225,41.9333334 32.375,41.625 32.375,41.625 L32.375,27.75 L41.625,27.75 L41.625,41.625 Z M32.375,43.1666666 L41.625,43.1666666 L41.625,61.6666666 L32.375,61.6666666 L32.375,43.1666666 Z" id="Shape" fill="#FFFFFF"></path>
            <path d="M37,34.5333334 C49.6416666,34.5333334 57.35,37 57.9666666,38.2333334 C57.35,39.4666667 49.95,42.2416666 37,42.2416666 C24.05,42.2416666 16.65,39.775 16.0333334,38.5416666 C16.65,37.3083333 24.3583334,34.5333334 37,34.5333334 M37,33.3 C24.6666666,33.3 14.8,35.7666666 14.8,38.85 C14.8,41.9333334 24.6666666,43.7833334 37,43.7833334 C49.3333334,43.7833334 59.2,41.3166667 59.2,38.2333334 C59.2,35.15 49.3333334,33.3 37,33.3 Z" id="Shape" fill="#FFFFFF"></path>
        </g>
        <g id="Group" transform="translate(32.000000, 32.000000)">
            <path d="M84.5,6 C127.854385,6 163,41.1456152 163,84.5 C163,127.854385 127.854385,163 84.5,163 C41.1456152,163 6,127.854385 6,84.5 C6,41.1456152 41.1456152,6 84.5,6 Z M85.7388281,49.611043 L60.8135449,49.611043 L60.8132383,72.1537285 L55.4258691,72.1537285 L55.4258691,78.6689219 L60.8132383,78.6689219 L60.8132383,88.4415586 L55.4258691,88.4415586 L55.4258691,94.9569053 L60.8132383,94.9569053 L60.8133916,119.388957 L84.9599609,119.388957 L85.2863799,119.387884 C96.0319873,119.324103 104.296565,116.10039 110.079808,109.811497 C113.686515,105.873925 116.141786,100.904507 117.418944,94.9569053 L125.203783,94.9569053 L125.203783,88.4417119 L118.320008,88.4418652 C118.40878,87.1636338 118.453396,85.8495254 118.453396,84.5 C118.453396,82.4718789 118.362938,80.5277773 118.183093,78.6687686 L125.203783,78.6687686 L125.203783,72.1537285 L117.103104,72.1535752 C115.836679,66.9544834 113.683755,62.6196582 110.664111,59.1885029 C105.017018,52.7383174 96.7410937,49.611043 85.7388281,49.611043 L85.7388281,49.611043 Z M68.7969336,94.956752 L109.357209,94.9570586 C108.28182,99.1034531 106.498245,102.530009 104.043127,105.218327 C99.4669756,110.00698 92.6514277,112.45014 83.5964834,112.45014 L68.7969336,112.45014 L68.7969336,94.956752 L68.7969336,94.956752 Z M110.271611,78.6687686 C110.468015,80.4945068 110.566753,82.4383018 110.566753,84.5 L110.56614,84.7719902 C110.559854,86.0374961 110.509718,87.2606855 110.416499,88.4417119 L68.7969336,88.4417119 L68.7969336,78.6687686 L110.271611,78.6687686 Z M84.4730156,56.5498604 C93.625165,56.5498604 100.245996,58.8952012 104.530072,63.6838545 L104.649202,63.819543 C106.566013,66.0230625 108.024702,68.8010732 109.014231,72.1535752 L68.7969336,72.1535752 L68.7969336,56.5498604 L84.4730156,56.5498604 Z" id="Shape" fill="#F9BF4A" fill-rule="nonzero"></path>
            <path d="M84,0 C130.391919,0 168,37.608081 168,84 C168,130.391919 130.391919,168 84,168 C37.608081,168 0,130.391919 0,84 C0,37.608081 37.608081,0 84,0 Z M84.5,7 C41.6979319,7 7,41.6979319 7,84.5 C7,127.302068 41.6979319,162 84.5,162 C127.302068,162 162,127.302068 162,84.5 C162,41.6979319 127.302068,7 84.5,7 Z" id="Combined-Shape" fill="#FFFFFF"></path>
        </g>
    </g>
</svg>