<?xml version="1.0" encoding="UTF-8"?>
<svg width="192px" height="230px" viewBox="0 0 192 230" version="1.1" xmlns="http://www.w3.org/2000/svg" xmlns:xlink="http://www.w3.org/1999/xlink">
    <title>192*230</title>
    <defs>
        <polygon id="path-1" points="2.05414013e-05 0.0872725537 258 0.0872725537 258 257.882022 2.05414013e-05 257.882022"></polygon>
        <path d="M39.0392677,67.5195738 C96.0564747,87.726221 117.322568,35.500771 117.322568,35.500771 L117.322568,35.500771 L1.58651249,0.141631098 C1.58651249,0.141631098 -11.5609619,49.587571 39.0392677,67.5195738" id="path-3"></path>
        <path d="M39.0392677,67.5195738 C96.0564747,87.726221 117.322568,35.500771 117.322568,35.500771 L117.322568,35.500771 L1.58651249,0.141631098 C1.58651249,0.141631098 -11.5609619,49.587571 39.0392677,67.5195738" id="path-5"></path>
    </defs>
    <g id="192*230" stroke="none" stroke-width="1" fill="none" fill-rule="evenodd" opacity="0.2">
        <g id="smiley-loading" transform="translate(0.000000, -28.000000)">
            <g id="smiley-swap" transform="translate(22.000000, 58.000000)" fill="#FFFFFF" fill-rule="nonzero">
                <path d="M63.8717852,43.4120126 C63.8794646,49.7165199 69.0255248,54.8254317 75.3758741,54.8330558 C81.7262234,54.8254317 86.8722837,49.7165199 86.8799632,43.4120126 L86.8799632,43.4120126 L92.0844784,43.4120126 C92.0844784,52.5733051 84.6037812,60 75.3758741,60 C66.1479671,60 58.66727,52.5733051 58.66727,43.4120126 L58.66727,43.4120126 L63.8717852,43.4120126 Z M104.878745,15.2369437 L110.602916,29.192043 L116.012506,15.2369437 L121,15.2369437 L108.743307,45.0130934 L103.931022,45.0130934 L108.251526,34.7523398 L99.8215655,15.2369437 L104.878745,15.2369437 Z M76.7835224,9.83280171 L76.7835224,39.3717544 C76.7835211,39.8600515 77.1816599,40.2562004 77.6735063,40.2572905 L77.6735063,40.2572905 L80.2239975,40.2572905 L80.2239975,44.8707762 L75.7063828,44.8707762 C73.6656408,44.8718703 72.0094777,43.232085 72.0050844,41.2060791 L72.0050844,41.2060791 L72.0050844,9.83280171 L76.7835224,9.83280171 Z M13.8495055,0.000979531863 C15.1802042,-0.012846879 16.5083497,0.119738128 17.8096359,0.396308127 C18.9209968,0.638513168 20.0020291,1.00178013 21.0330903,1.47950847 C21.990328,1.92814608 22.892801,2.48389216 23.7229526,3.1359353 C24.5419349,3.784786 25.3161847,4.4874105 26.040495,5.23908343 L26.040495,5.23908343 L20.4656509,9.54618848 C18.9060219,7.1742169 16.7159045,5.98823112 13.8952989,5.98823112 C12.2374464,5.98954887 10.9764698,6.37367649 10.112369,7.14061397 C9.27778275,7.84731113 8.80344812,8.88621214 8.81820874,9.97512 C8.7973728,10.6198366 9.00920203,11.2507368 9.41551346,11.7540987 C9.86770494,12.2777067 10.417289,12.7099049 11.0342093,13.0270568 C11.790508,13.427701 12.5822764,13.7585314 13.399536,14.0153782 L13.399536,14.0153782 L16.2427065,14.9266106 C17.4704995,15.3113971 18.707584,15.7521886 19.9539598,16.2489848 C21.1675947,16.7282122 22.3070643,17.3750176 23.3386866,18.1702818 C24.349958,18.9529174 25.1888576,19.9330897 25.8035641,21.0502507 C26.4353797,22.188797 26.7512876,23.60605 26.7512876,25.3020097 C26.7492967,26.6914813 26.4606399,28.0658216 25.9031149,29.3402913 C25.3387861,30.6547251 24.5086512,31.8401444 23.4641206,32.8231362 C22.3218299,33.8818306 20.9856149,34.7132009 19.5278825,35.2721969 C17.828447,35.921858 16.0187393,36.2399786 14.1979333,36.2091256 C10.9074479,36.2104433 8.133963,35.592413 5.87747848,34.3550345 C3.66773143,33.1577919 1.68003086,31.5948866 0,29.7336432 L0,29.7336432 L6.17214882,25.1142286 C7.01415699,26.5324367 8.19685448,27.7215368 9.61461504,28.5753304 C10.9870521,29.379055 12.5548365,29.7946597 14.1481579,29.7771293 C15.9413994,29.7784471 17.3112182,29.2981229 18.2576144,28.3361566 C19.2040105,27.3741904 19.6772086,26.2857189 19.6772086,25.0707424 C19.695593,24.389783 19.465826,23.7251101 19.0301285,23.1988615 C18.5571758,22.6535613 17.9816501,22.2050584 17.3357741,21.878464 C16.5624496,21.4773044 15.754113,21.1465124 14.9206721,20.8901425 C14.0074594,20.6028704 13.0690273,20.3149394 12.1053757,20.0263496 C10.8762554,19.6415631 9.64713497,19.2258091 8.41801458,18.7790879 C7.22657568,18.3528185 6.10843503,17.7467808 5.10297335,16.9823194 C4.12058396,16.2277557 3.30695846,15.278647 2.71375447,14.1952527 C2.09919427,13.0922859 1.79191418,11.7086359 1.79191418,10.0443025 C1.78207777,8.68070238 2.08936796,7.33324503 2.68986227,6.10682969 C3.29507584,4.87998886 4.15235356,3.7925608 5.20650618,2.91455129 C6.33863043,1.96821393 7.63929086,1.2407844 9.04120251,0.769893651 C10.5885815,0.245255155 12.214454,-0.0147443317 13.8495055,0.000979531863 Z M89.5319961,15.2033407 C90.9757036,15.189784 92.4096914,15.4390041 93.7629046,15.9386519 C95.0087314,16.3954564 96.1495443,17.0958397 97.1177661,17.9983139 C98.0564179,18.8800706 98.804904,19.9419057 99.3178385,21.1194331 C99.8553111,22.3573863 100.126565,23.6930944 100.114245,25.0410927 L100.114245,25.0410927 L100.114245,26.7093794 L83.3897125,26.7093794 C83.6751592,28.0830303 84.4324409,29.3155597 85.5320454,30.1961777 C86.6324135,31.0790782 88.0261246,31.5205285 89.7131785,31.5205285 C92.1716244,31.5942363 94.4263148,30.1706456 95.4015106,27.9289681 L95.4015106,27.9289681 L99.2999193,30.1605981 C98.4264744,31.7931027 97.1372552,33.1697924 95.5607918,34.1534169 C93.9560331,35.1641404 92.0068287,35.6695021 89.7131785,35.6695021 C88.2006325,35.6875645 86.6984818,35.4192232 85.2871506,34.8788448 C84.0114745,34.3871324 82.8472884,33.6479696 81.8626034,32.7045376 C80.9129473,31.7820807 80.1605876,30.6788317 79.6505849,29.4608665 C79.1186437,28.2004057 78.8477923,26.8465136 78.8539286,25.4799076 C78.8403886,22.7318567 79.9572382,20.097327 81.9462261,18.186095 C83.9890609,16.2521258 86.7093091,15.1825135 89.5319961,15.2033407 Z M53.2536982,15.2033407 C56.017228,15.2033407 58.1011579,15.9505118 59.5054876,17.4448538 C60.9098173,18.9391959 61.6119823,20.986998 61.6119823,23.5882602 L61.6119823,23.5882602 L61.6119823,35.6358991 L56.7758051,35.6358991 L56.7758051,24.0171917 C56.7758051,22.5637003 56.4008304,21.4113173 55.6508811,20.5600431 C54.9009319,19.708769 53.7892814,19.2831318 52.3159298,19.2831318 C51.1047891,19.2524623 49.934945,19.7211724 49.0845112,20.577833 C48.2177557,21.4396492 47.7843779,22.7455514 47.7843779,24.4955393 L47.7843779,24.4955393 L47.7843779,35.6358991 L42.9621378,35.6358991 L42.9621378,23.8808033 C42.9647925,22.4497139 42.6024276,21.3256629 41.8750432,20.5086505 C41.1476588,19.691638 40.0705192,19.2831318 38.6436247,19.2831318 C37.3990622,19.246755 36.1958001,19.7283117 35.3246014,20.6114358 C34.4458998,21.4969719 34.006549,22.825276 34.006549,24.5963481 L34.006549,24.5963481 L34.006549,35.6358991 L29.2679314,35.6358991 L29.2679314,15.2369437 L33.9746927,15.2369437 L33.9746927,17.8718087 C34.6382653,17.0419231 35.4849791,16.3744463 36.4495252,15.9208621 C37.5080724,15.4291057 38.6657126,15.1836998 39.8342521,15.2033407 C41.4509569,15.2020771 42.8148026,15.5051082 43.9257894,16.1125964 C45.0203006,16.6986609 45.9195705,17.5880056 46.5141098,18.672349 C47.2192158,17.6155007 48.1768257,16.7483292 49.3015319,16.148176 C50.5164055,15.5043076 51.8767674,15.1790889 53.2536982,15.2033407 Z M69.0922284,15.2369437 L69.0922284,35.6339225 L64.3157817,35.6339225 L64.3157817,15.2369437 L69.0922284,15.2369437 Z M89.518059,19.3523143 C88.089837,19.3523143 86.8547437,19.6652828 85.8127787,20.2912197 C84.8283354,20.8562253 84.0586678,21.7273123 83.6226614,22.76993 L83.6226614,22.76993 L95.2780675,22.76993 C94.9579857,21.689274 94.2267603,20.7747511 93.2392675,20.2200605 C92.2318135,19.6415631 90.9914107,19.3523143 89.518059,19.3523143 Z M66.6990276,7.28688554 C67.6281682,7.28820331 68.3582073,7.56163893 68.8891448,8.10719238 C69.4326645,8.68767407 69.7194721,9.46002381 69.6855511,10.25185 C69.6762598,11.1347506 69.410791,11.8437065 68.8891448,12.3787179 C68.3674988,12.9137292 67.6374596,13.1812349 66.6990276,13.1812349 C65.7380307,13.1812349 65.0000275,12.9137292 64.485018,12.3787179 C63.9700087,11.8437065 63.7125039,11.1347506 63.7125039,10.25185 C63.6786878,9.4574784 63.9711276,8.68350614 64.5228474,8.10719238 C65.0617489,7.56032116 65.7871424,7.28688554 66.6990276,7.28688554 Z" id="Combined-Shape"></path>
            </g>
            <g id="Group-35">
                <g id="Group-20">
                    <path d="M246.364817,129.472528 C246.374676,194.518905 193.610184,247.257224 128.512018,247.267077 C63.4136474,247.276724 10.6333385,194.554209 10.6234787,129.50783 C10.6136188,64.4616591 63.3785216,11.7231341 128.476482,11.7134873 C193.574647,11.7036353 246.354956,64.4261509 246.364817,129.472528" id="Fill-1" fill="#FFE77E" fill-rule="nonzero"></path>
                    <path d="M226.625618,64.7740916 C226.625618,64.7740916 267.117445,205.291319 122.441274,245.751342 C122.441274,245.751342 205.407584,257.870569 238.783047,171.933992 C238.783047,171.933992 270.142166,134.523786 226.625618,64.7740916" id="Fill-3" fill="#EAA549" fill-rule="nonzero"></path>
                    <g id="Fill-5-Clipped">
                        <mask id="mask-2" fill="white">
                            <use xlink:href="#path-1"></use>
                        </mask>
                        <g id="path-1"></g>
                        <path d="M128.982355,12.2188143 C64.5466495,12.2284611 12.1315667,64.6172392 12.1410158,129.002094 C12.1508756,193.387153 64.5817753,245.760127 129.017686,245.750685 C193.453186,245.740833 245.868475,193.35226 245.858819,128.967201 C245.849165,64.5821413 193.41806,12.2091675 128.982355,12.2188143 M129.019534,257.882022 C57.8885651,257.892695 0.0107020701,200.078323 2.05414014e-05,129.003941 C-0.0106609873,57.9297643 57.8497418,0.0979455848 128.980506,0.0872725537 C200.111271,0.0765995226 257.989339,57.8911771 258.000021,128.965354 C258.010702,200.03953 200.1503,257.871348 129.019534,257.882022" id="Fill-5" fill="#000000" fill-rule="nonzero" mask="url(#mask-2)"></path>
                    </g>
                    <polyline id="Fill-8" fill="#FFE77E" fill-rule="nonzero" points="81.4358308 54.1807389 97.626974 73.386653 73.3466269 87.5436076"></polyline>
                    <polygon id="Fill-10" fill="#000000" fill-rule="nonzero" points="75.8964721 91.9094725 70.7968638 83.1779069 89.8843447 72.0486039 77.5671043 57.4374296 85.3046393 50.9242125 105.36948 74.7246611"></polygon>
                    <polyline id="Fill-12" fill="#FFE77E" fill-rule="nonzero" points="198.805454 87.5248478 172.501162 97.6383656 185.657519 120.888538"></polyline>
                    <polygon id="Fill-14" fill="#000000" fill-rule="nonzero" points="181.254203 123.376565 165.210751 95.0252998 196.988916 82.8075528 200.622278 92.2423069 179.79145 100.251596 190.060918 118.400469"></polygon>
                    <path d="M121.276104,205.511267 C112.829275,205.512497 103.858434,203.83601 94.6109006,200.527576 C66.2826649,190.393121 56.723313,170.733809 53.691813,156.025757 C50.4546936,140.316902 53.8573768,127.078239 54.0036316,126.52242 L55.3466284,121.424406 L181.283495,160.264797 L179.226067,165.363427 C178.565251,167.002147 162.55898,205.505108 121.276104,205.511267" id="Fill-16" fill="#FF99C3" fill-rule="nonzero"></path>
                    <path d="M51.7970332,115.039142 L49.1110394,125.235581 C48.9524599,125.838197 45.2632242,140.189113 48.7373914,157.045113 C52.0305888,173.02223 62.3662003,194.360698 92.9065394,205.286802 C102.702118,208.791046 112.247501,210.567284 121.276885,210.566054 C139.855967,210.56318 156.609328,203.040541 169.725629,188.811748 C179.387688,178.3296 183.737946,167.700083 183.918709,167.252636 L188.03192,157.055786 L177.518626,153.813443 L61.8795745,118.148688 L51.7970332,115.039142 Z M58.8957306,127.808808 L174.534576,163.473356 C174.534576,163.473356 159.618026,200.450688 121.275242,200.456642 C113.854044,200.457667 105.555729,199.073867 96.3168229,195.768717 C45.7595045,177.681624 58.8957306,127.808808 58.8957306,127.808808 L58.8957306,127.808808 Z" id="Fill-18" fill="#000000" fill-rule="nonzero"></path>
                </g>
                <g id="Group-27" transform="translate(58.050000, 127.710000)">
                    <g id="Fill-21-Clipped">
                        <mask id="mask-4" fill="white">
                            <use xlink:href="#path-3"></use>
                        </mask>
                        <g id="path-3"></g>
                        <path d="M96.056372,86.4627536 C96.0606893,114.141459 65.2039774,136.583883 27.1363124,136.589583 C-10.9315583,136.595075 -41.7948489,114.161808 -41.7991663,86.4833064 C-41.8032781,58.8046014 -10.9469773,36.362177 27.1208933,36.3564769 C65.1885584,36.3507814 96.0520547,58.7840486 96.056372,86.4627536" id="Fill-21" fill="#F44764" fill-rule="nonzero" mask="url(#mask-4)"></path>
                    </g>
                    <g id="Fill-24-Clipped">
                        <mask id="mask-6" fill="white">
                            <use xlink:href="#path-5"></use>
                        </mask>
                        <g id="path-5"></g>
                        <path d="M27.1213867,39.3634723 C-9.21030427,39.368765 -38.7654469,60.5067996 -38.7617462,86.4830826 C-38.7576345,112.459162 -9.19570762,133.587632 27.1355722,133.582344 C63.4672633,133.576848 93.0226114,112.439423 93.0187053,86.4633438 C93.0147991,60.4872642 63.4528722,39.3581834 27.1213867,39.3634723 M27.1366002,139.596374 C-12.545126,139.60207 -44.8329268,115.77569 -44.8374498,86.4838966 C-44.841767,57.1914922 -12.5613673,33.3555482 27.1203589,33.3496447 C66.8022906,33.3437456 99.0898858,57.1701256 99.0944087,86.4623264 C99.0987261,115.754324 66.818532,139.590268 27.1366002,139.596374" id="Fill-24" fill="#000000" fill-rule="nonzero" mask="url(#mask-6)"></path>
                    </g>
                </g>
                <g id="Group-34" transform="translate(52.890000, 126.420000)" fill-rule="nonzero">
                    <path d="M5.47646341,7.97899968 L118.422738,43.8198853 C118.422738,43.8198853 121.470244,39.008004 122.482515,35.9359757 L7.02005879,0.114424066 C7.02005879,0.114424066 5.95638236,1.50751212 5.47646341,7.97899968" id="Fill-28" fill="#FFFFFF"></path>
                    <line x1="0.944560294" y1="9.33121607" x2="120.458569" y2="47.2000935" id="Fill-30" fill="#FFE77E"></line>
                    <polygon id="Fill-32" fill="#000000" points="119.550219 50.131649 0.0362098239 12.2627715 1.85328089 6.39957752 121.36729 44.268455"></polygon>
                </g>
            </g>
        </g>
    </g>
</svg>