<?xml version="1.0" encoding="UTF-8"?>
<svg width="202px" height="134px" viewBox="0 0 202 134" version="1.1" xmlns="http://www.w3.org/2000/svg" xmlns:xlink="http://www.w3.org/1999/xlink">
    <title>BG_right</title>
    <defs>
        <filter x="-9.0%" y="-90.0%" width="118.0%" height="280.0%" filterUnits="objectBoundingBox" id="filter-1">
            <feGaussianBlur stdDeviation="3" in="SourceGraphic"></feGaussianBlur>
        </filter>
        <polygon id="path-2" points="9.39490447e-06 0.039915354 118 0.039915354 118 117.946041 9.39490447e-06 117.946041"></polygon>
        <path d="M17.7508138,31.1427492 C43.6760394,40.4628694 53.345546,16.3743866 53.345546,16.3743866 L53.345546,16.3743866 L0.72137336,0.0653259717 C0.72137336,0.0653259717 -5.25666833,22.8717866 17.7508138,31.1427492" id="path-4"></path>
        <path d="M17.7508138,31.1427492 C43.6760394,40.4628694 53.345546,16.3743866 53.345546,16.3743866 L53.345546,16.3743866 L0.72137336,0.0653259717 C0.72137336,0.0653259717 -5.25666833,22.8717866 17.7508138,31.1427492" id="path-6"></path>
    </defs>
    <g id="BG_right" stroke="none" stroke-width="1" fill="none" fill-rule="evenodd">
        <path d="M162,15 C162.552285,15 163,15.4477153 163,16 L163,19 L166,19 C166.552285,19 167,19.4477153 167,20 C167,20.5522847 166.552285,21 166,21 L163,21 L163,24 C163,24.5522847 162.552285,25 162,25 C161.447715,25 161,24.5522847 161,24 L161,20.999 L158,21 C157.447715,21 157,20.5522847 157,20 C157,19.4477153 157.447715,19 158,19 L161,18.999 L161,16 C161,15.4477153 161.447715,15 162,15 Z" id="Combined-Shape" fill="#C7C7C7"></path>
        <circle id="Oval" stroke="#FFE77E" stroke-width="3" cx="48" cy="8" r="5"></circle>
        <circle id="Oval" fill="#F44764" cx="179" cy="50" r="2"></circle>
        <circle id="Oval-Copy" stroke="#F44764" stroke-width="4" cx="23" cy="104" r="7"></circle>
        <ellipse id="Oval" fill="#222123" opacity="0.796471005" filter="url(#filter-1)" cx="135" cy="127" rx="50" ry="5"></ellipse>
        <g id="smiley-swap" transform="translate(56.000000, 42.000000)" fill="#FFFFFF" fill-rule="nonzero">
            <path d="M28.5047637,18.8118721 C28.5081908,21.5438253 30.8047797,23.7576871 33.6388199,23.7609908 C36.47286,23.7576871 38.7694489,21.5438253 38.7728761,18.8118721 L38.7728761,18.8118721 L41.0955523,18.8118721 C41.0955523,22.7817656 37.7570594,26 33.6388199,26 C29.5205803,26 26.1820874,22.7817656 26.1820874,18.8118721 L26.1820874,18.8118721 L28.5047637,18.8118721 Z M46.8053905,6.60267558 L49.3599789,12.6498853 L51.774176,6.60267558 L54,6.60267558 L48.5300709,19.5056738 L46.3824396,19.5056738 L48.3105984,15.0593472 L44.5484673,6.60267558 L46.8053905,6.60267558 Z M34.2670265,4.26088074 L34.2670265,17.0610936 C34.2670259,17.272689 34.4447077,17.4443535 34.6642094,17.4448259 L34.6642094,17.4448259 L35.8024452,17.4448259 L35.8024452,19.444003 L33.7863196,19.444003 C32.8755752,19.4444771 32.1364611,18.7339035 32.1345005,17.8559676 L32.1345005,17.8559676 L32.1345005,4.26088074 L34.2670265,4.26088074 Z M6.18077106,0.000424463807 C6.77463658,-0.00556698092 7.3673627,0.0518865223 7.94810196,0.171733522 C8.44408122,0.276689039 8.92652538,0.434104722 9.3866684,0.641120339 C9.81386539,0.835529969 10.2166219,1.07635327 10.5871028,1.35890529 C10.9525991,1.64007394 11.298132,1.94454455 11.6213779,2.27026949 L11.6213779,2.27026949 L9.13343097,4.13668167 C8.4373982,3.10882733 7.45999045,2.59490015 6.20120777,2.59490015 C5.46133974,2.59547118 4.89858984,2.76192648 4.51295806,3.09426605 C4.14049809,3.40050149 3.92881156,3.85069193 3.93539894,4.322552 C3.92610026,4.60192917 4.02063562,4.87531926 4.20196469,5.09344276 C4.40376915,5.32033956 4.64903806,5.50762545 4.92435785,5.64505793 C5.26187961,5.81867045 5.61523077,5.96203027 5.97995822,6.07333056 L5.97995822,6.07333056 L7.24881116,6.46819793 C7.79675186,6.63493876 8.34883912,6.82594838 8.90507296,7.04122674 C9.44669514,7.24889196 9.95521877,7.52917428 10.4156122,7.87378879 C10.8669234,8.21293087 11.2413083,8.63767218 11.5156402,9.12177528 C11.7976075,9.61514535 11.9385911,10.2292884 11.9385911,10.9642042 C11.9377027,11.5663086 11.8088806,12.161856 11.5600678,12.7141262 C11.3082186,13.2837142 10.9377452,13.7973959 10.471591,14.223359 C9.96180838,14.6821266 9.36548104,15.042387 8.71492276,15.2846186 C7.95649701,15.5661384 7.14885888,15.7039907 6.33626774,15.6906211 C4.86778668,15.6911921 3.63003307,15.4233789 2.62300693,14.8871816 C1.63683882,14.3683765 0.749765838,13.6911175 0,12.8845787 L0,12.8845787 L2.7545127,10.8828324 C3.13028494,11.4973892 3.65810035,12.0126659 4.29081993,12.3826432 C4.90331251,12.7309239 5.60298486,12.9110192 6.31405392,12.9034227 C7.11434351,12.9039938 7.72566763,12.6958532 8.14802628,12.2790012 C8.57038487,11.8621492 8.78156416,11.3904782 8.78156416,10.8639884 C8.78976877,10.5689059 8.68722811,10.2808811 8.49278463,10.05284 C8.28171483,9.81654321 8.02486865,9.62219197 7.73662647,9.48066775 C7.39150644,9.30683192 7.03076117,9.16348872 6.65881233,9.05239507 C6.25126289,8.92791052 5.83245848,8.80314042 5.40239909,8.67808483 C4.85386603,8.511344 4.30533296,8.33118396 3.75679989,8.13760474 C3.22508336,7.95288803 2.72607844,7.69027169 2.27736001,7.35900507 C1.8389383,7.03202749 1.4758327,6.62074705 1.21109704,6.15127619 C0.936830501,5.6733239 0.799697237,5.07374222 0.799697237,4.35253109 C0.795307433,3.7616377 0.932445207,3.17773951 1.2004344,2.64629286 C1.47052971,2.11466184 1.85311647,1.64344302 2.32356474,1.26297222 C2.82881027,0.852892701 3.4092703,0.537673242 4.03491682,0.333620582 C4.72548263,0.106277234 5.45107862,-0.00638921038 6.18077106,0.000424463807 Z M39.956428,6.58811428 C40.6007272,6.58223975 41.2406887,6.6902351 41.8446021,6.90674914 C42.4005909,7.10469777 42.909714,7.40819718 43.341813,7.79926934 C43.7607154,8.18136393 44.0947505,8.64149249 44.3236635,9.15175436 C44.5635273,9.68820071 44.6845829,10.2670076 44.6790845,10.8511402 L44.6790845,10.8511402 L44.6790845,11.5740644 L37.2152436,11.5740644 C37.342633,12.1693131 37.6805935,12.7034092 38.1713261,13.0850103 C38.6623994,13.4676006 39.2843862,13.6588957 40.0372863,13.6588957 C41.1344439,13.6908357 42.1406694,13.0739464 42.5758808,12.1025529 L42.5758808,12.1025529 L44.3156665,13.0695925 C43.9258646,13.7770112 43.3505106,14.3735767 42.6469649,14.799814 C41.9307916,15.2377942 41.0608987,15.4567843 40.0372863,15.4567843 C39.3622657,15.4646113 38.6918845,15.3483301 38.0620341,15.1141661 C37.4927241,14.9010907 36.97317,14.5807868 36.5337238,14.1719663 C36.1099104,13.772235 35.7741465,13.2941604 35.546542,12.7663755 C35.3091468,12.2201758 35.1882709,11.6334892 35.1910094,11.0412933 C35.1849668,9.85047123 35.6833955,8.7088417 36.5710431,7.88064115 C37.4827214,7.04258784 38.6967165,6.57908917 39.956428,6.58811428 Z M23.7661133,6.58811428 C24.9994241,6.58811428 25.9294424,6.91188844 26.556168,7.55943664 C27.1828937,8.2069849 27.4962566,9.0943658 27.4962566,10.2215794 L27.4962566,10.2215794 L27.4962566,15.442223 L25.3379626,15.442223 L25.3379626,10.4074497 C25.3379626,9.77760347 25.1706185,9.27823752 24.8359304,8.909352 C24.5012423,8.54046655 24.0051339,8.35602379 23.347605,8.35602379 C22.807096,8.34273367 22.2850168,8.54584137 21.9054843,8.91706095 C21.5186678,9.29051466 21.3252595,9.85640562 21.3252595,10.6147337 L21.3252595,10.6147337 L21.3252595,15.442223 L19.1731855,15.442223 L19.1731855,10.3483481 C19.1743702,9.72820934 19.0126537,9.2411206 18.6880358,8.88708187 C18.363418,8.53304315 17.8827111,8.35602379 17.2459151,8.35602379 C16.6904906,8.3402605 16.1534976,8.54893509 15.7646981,8.93162219 C15.3725503,9.3153545 15.1764764,9.89095295 15.1764764,10.6584175 L15.1764764,10.6584175 L15.1764764,15.442223 L13.0617215,15.442223 L13.0617215,6.60267558 L15.1622595,6.60267558 L15.1622595,7.74445043 C15.4583994,7.38483336 15.8362717,7.09559342 16.2667303,6.89904026 C16.7391397,6.68594578 17.2557726,6.57960324 17.7772695,6.58811428 C18.4987741,6.58756676 19.1074326,6.71888021 19.6032449,6.98212512 C20.0917044,7.2360864 20.4930315,7.62146908 20.7583631,8.09135125 C21.0730385,7.63338363 21.5004015,7.25760931 22.0023365,6.99754295 C22.5445115,6.71853328 23.1516152,6.5776052 23.7661133,6.58811428 Z M30.8345482,6.60267558 L30.8345482,15.4413664 L28.7029109,15.4413664 L28.7029109,6.60267558 L30.8345482,6.60267558 Z M39.9502081,8.38600287 C39.3128198,8.38600287 38.7616211,8.52162254 38.296612,8.79286189 C37.8572737,9.03769761 37.5137856,9.41516867 37.3192043,9.86696965 L37.3192043,9.86696965 L42.5207905,9.86696965 C42.377944,9.3986854 42.051612,9.00239216 41.6109128,8.76202623 C41.1613052,8.511344 40.607737,8.38600287 39.9502081,8.38600287 Z M29.7665082,3.1576504 C30.181166,3.15822144 30.5069685,3.2767102 30.7439159,3.5131167 C30.9864784,3.76465876 31.1144751,4.09934365 31.0993369,4.44246834 C31.0951903,4.82505857 30.9767167,5.13227281 30.7439159,5.36411107 C30.5111152,5.59594933 30.1853125,5.71186844 29.7665082,5.71186844 C29.3376335,5.71186844 29.0082767,5.59594933 28.7784378,5.36411107 C28.5485989,5.13227281 28.4336794,4.82505857 28.4336794,4.44246834 C28.4185879,4.09824064 28.5490983,3.76285266 28.7953203,3.5131167 C29.0358218,3.27613917 29.3595511,3.1576504 29.7665082,3.1576504 Z" id="Combined-Shape"></path>
        </g>
        <g id="Group-35" transform="translate(45.000000, 15.000000)">
            <g id="Group-20">
                <path d="M112.678482,59.2161176 C112.682991,88.9660109 88.5503943,113.086638 58.7768146,113.091144 C29.0031411,113.095556 4.86330987,88.9821574 4.85880032,59.2322635 C4.85429076,29.4824643 28.9870758,5.36174352 58.7605615,5.35733142 C88.5341409,5.35282546 112.673972,29.466224 112.678482,59.2161176" id="Fill-1" fill="#FFE77E" fill-rule="nonzero"></path>
                <path d="M103.650477,29.6253597 C103.650477,29.6253597 122.169994,93.8929286 56.0002728,112.3979 C56.0002728,112.3979 93.9461041,117.940803 109.210851,78.6364768 C109.210851,78.6364768 123.553394,61.526383 103.650477,29.6253597" id="Fill-3" fill="#EAA549" fill-rule="nonzero"></path>
                <g id="Fill-5-Clipped">
                    <mask id="mask-3" fill="white">
                        <use xlink:href="#path-2"></use>
                    </mask>
                    <g id="path-1"></g>
                    <path d="M58.9919298,5.58844996 C29.5213358,5.59286205 5.54854602,29.553621 5.55286768,59.0009576 C5.55737723,88.448388 29.5374011,112.401918 59.0080889,112.3976 C88.4785889,112.393094 112.451473,88.4324291 112.447057,58.9849989 C112.442641,29.5375685 88.4625238,5.58403787 58.9919298,5.58844996 M59.0089344,117.946041 C26.4761655,117.950923 0.00489474522,91.5086903 9.39490461e-06,59.0018025 C-0.00487595541,26.4950085 26.458409,0.0447968178 58.9910842,0.039915354 C91.5237594,0.0350338902 117.995124,26.4773601 118.000009,58.984154 C118.004895,91.4909478 91.5416099,117.941159 59.0089344,117.946041" id="Fill-5" fill="#000000" fill-rule="nonzero" mask="url(#mask-3)"></path>
                </g>
                <polyline id="Fill-8" fill="#FFE77E" fill-rule="nonzero" points="37.2458451 24.780338 44.6510966 33.5644382 33.5461317 40.0393244"></polyline>
                <polygon id="Fill-10" fill="#000000" fill-rule="nonzero" points="34.71234 42.0361153 32.379961 38.0426086 41.1098941 32.9524622 35.4764275 26.2698321 39.0153002 23.2909189 48.1922428 34.1763954"></polygon>
                <polyline id="Fill-12" fill="#FFE77E" fill-rule="nonzero" points="90.9265254 40.0307443 78.8958803 44.6563067 84.9131286 55.2901063"></polyline>
                <polygon id="Fill-14" fill="#000000" fill-rule="nonzero" points="82.8992091 56.4280412 75.5615065 43.4611836 90.0957057 37.8732218 91.7574761 42.1883419 82.230198 45.851505 86.9270865 54.1521526"></polygon>
                <path d="M55.4673656,93.9935251 C51.6040869,93.9940877 47.5011443,93.2273225 43.2716522,91.7141625 C30.3153274,87.0790245 25.9432207,78.0875561 24.5567207,71.3606174 C23.0761777,64.1759473 24.6324437,58.1210549 24.6993354,57.8668433 L25.3135742,55.5351933 L82.9126062,73.2994034 L81.9716122,75.6313348 C81.6693782,76.3808271 74.3486807,93.9907081 55.4673656,93.9935251" id="Fill-16" fill="#FF99C3" fill-rule="nonzero"></path>
                <path d="M23.690116,52.6148013 L22.4616382,57.278289 C22.3891095,57.5539039 20.7017847,64.1175013 22.2907449,71.8268348 C23.796936,79.1341984 28.5240761,88.8936527 42.4921382,93.890863 C46.9722863,95.4935792 51.3380045,96.3059673 55.4677226,96.3054047 C63.965132,96.3040899 71.6275222,92.8635031 77.6264505,86.3557606 C82.0455316,81.5616 84.0351844,76.7000378 84.1178594,76.4953915 L85.999095,71.8317159 L81.1906894,70.3487839 L28.3015108,54.036997 L23.690116,52.6148013 Z M26.936807,58.4551911 L79.8258914,74.7668839 C79.8258914,74.7668839 73.0035934,91.6789967 55.466971,91.6817198 C52.0727799,91.6821886 48.2774264,91.0492879 44.0518802,89.53763 C20.9287656,81.2652389 26.936807,58.4551911 26.936807,58.4551911 L26.936807,58.4551911 Z" id="Fill-18" fill="#000000" fill-rule="nonzero"></path>
            </g>
            <g id="Group-27" transform="translate(27.000000, 58.000000)">
                <g id="Fill-21-Clipped">
                    <mask id="mask-5" fill="white">
                        <use xlink:href="#path-4"></use>
                    </mask>
                    <g id="path-3"></g>
                    <path d="M43.6759927,39.8801073 C43.6779557,52.6466418 29.6476786,62.9979925 12.3386441,63.0006217 C-4.97048399,63.0031547 -19.0037525,52.6560277 -19.0057156,39.8895871 C-19.0075851,27.1230526 -4.97749488,16.7717018 12.3316331,16.7690727 C29.6406677,16.7664457 43.6740297,27.1135728 43.6759927,39.8801073" id="Fill-21" fill="#F44764" fill-rule="nonzero" mask="url(#mask-5)"></path>
                </g>
                <g id="Fill-24-Clipped">
                    <mask id="mask-7" fill="white">
                        <use xlink:href="#path-6"></use>
                    </mask>
                    <g id="path-5"></g>
                    <path d="M12.3318575,18.1560202 C-4.18784484,18.1584614 -17.6263098,27.908175 -17.6246272,39.8894838 C-17.6227576,51.8706988 -4.18120788,61.6160009 12.3383075,61.6135618 C28.8580098,61.6110267 42.2965683,51.8615945 42.2947922,39.8803795 C42.2930161,27.8991645 28.8514663,18.1535807 12.3318575,18.1560202 M12.3387749,64.3874751 C-5.70415912,64.3901021 -20.3851399,53.4004153 -20.3871965,39.8898593 C-20.3891595,26.3790216 -5.71154392,15.3849234 12.3313901,15.3822005 C30.3744176,15.3794796 45.055305,26.3691664 45.0573615,39.8799102 C45.0593245,53.3905601 30.3818024,64.3846585 12.3387749,64.3874751" id="Fill-24" fill="#000000" fill-rule="nonzero" mask="url(#mask-7)"></path>
                </g>
            </g>
            <g id="Group-34" transform="translate(24.000000, 58.000000)" fill-rule="nonzero">
                <path d="M2.49624844,3.58498311 L53.9787364,19.6883764 C53.9787364,19.6883764 55.3678322,17.5263869 55.8292395,16.1461175 L3.19984075,0.051410999 C3.19984075,0.051410999 2.71500219,0.677328703 2.49624844,3.58498311" id="Fill-28" fill="#FFFFFF"></path>
                <line x1="0.430543762" y1="4.19253708" x2="54.9066966" y2="21.2071118" id="Fill-30" fill="#FFE77E"></line>
                <polygon id="Fill-32" fill="#000000" points="54.4926578 22.5242665 0.016504943 5.50969173 0.844751288 2.87534506 55.3209041 19.8899198"></polygon>
            </g>
        </g>
    </g>
</svg>