<?xml version="1.0" encoding="UTF-8"?>
<svg width="202px" height="134px" viewBox="0 0 202 134" version="1.1" xmlns="http://www.w3.org/2000/svg" xmlns:xlink="http://www.w3.org/1999/xlink">
    <title>BG_left</title>
    <defs>
        <filter x="-9.3%" y="-90.0%" width="118.6%" height="280.0%" filterUnits="objectBoundingBox" id="filter-1">
            <feGaussianBlur stdDeviation="3" in="SourceGraphic"></feGaussianBlur>
        </filter>
        <path d="M16.2521633,27.9684128 C39.6037354,36.252429 48.3164577,14.8515061 48.3164577,14.8515061 L48.3164577,14.8515061 L0.916975862,0.354066937 C0.916975862,0.354066937 -4.47082759,20.6168002 16.2521633,27.9684128" id="path-2"></path>
        <path d="M16.2521633,27.9684128 C39.6037354,36.252429 48.3164577,14.8515061 48.3164577,14.8515061 L48.3164577,14.8515061 L0.916975862,0.354066937 C0.916975862,0.354066937 -4.47082759,20.6168002 16.2521633,27.9684128 L16.2521633,27.9684128 Z" id="path-4"></path>
    </defs>
    <g id="BG_left" stroke="none" stroke-width="1" fill="none" fill-rule="evenodd">
        <circle id="Oval-Copy-2" stroke="#F44764" stroke-width="3" cx="170" cy="106" r="5"></circle>
        <circle id="Oval-Copy-4" fill="#99DCF6" cx="32" cy="87" r="2"></circle>
        <circle id="Oval-Copy-3" stroke="#FFE77E" stroke-width="4" cx="25" cy="12" r="7"></circle>
        <ellipse id="Oval" fill="#222123" opacity="0.796471005" filter="url(#filter-1)" cx="83.5" cy="124" rx="48.5" ry="5"></ellipse>
        <g id="Group-38" transform="translate(105.500000, 78.000000) scale(-1, 1) translate(-105.500000, -78.000000) translate(54.000000, 25.000000)">
            <g id="Group-11">
                <path d="M98.9224138,50.0371416 C98.9224138,76.3106897 77.1973857,97.6097368 50.3983666,97.6097368 C23.5993475,97.6097368 1.87431942,76.3106897 1.87431942,50.0371416 C1.87431942,23.7635935 23.5993475,2.46454628 50.3983666,2.46454628 C77.1973857,2.46454628 98.9224138,23.7635935 98.9224138,50.0371416" id="Fill-1" fill="#FFE77E"></path>
                <path d="M90.800363,23.9028403 C90.800363,23.9028403 107.46098,80.6632759 47.899274,96.9972142 C47.899274,96.9972142 82.053539,101.897396 95.7985481,67.1877768 C95.7985481,67.1877768 108.710526,52.0788838 90.800363,23.9028403" id="Fill-3" fill="#EAA549"></path>
                <path d="M101.213249,49.8329673 C101.213249,77.2343739 78.556059,99.4473049 50.6066243,99.4473049 C22.6571897,99.4473049 0,77.2343739 0,49.8329673 C0,22.4315608 22.6571897,0.218629764 50.6066243,0.218629764 C78.556059,0.218629764 101.213249,22.4315608 101.213249,49.8329673 Z" id="Stroke-5" stroke="#000000" stroke-width="5.5862069"></path>
                <path d="M47.4221556,80.7432305 C43.9446683,80.7432305 40.2518426,80.0653721 36.4453081,78.7284392 C24.7837092,74.6335209 20.849721,66.6919601 19.6026738,60.7508984 C18.271074,54.4055717 19.6726484,49.0582486 19.7326266,48.833657 L20.2861756,46.7747641 L72.1281847,62.4708621 L71.2809923,64.5301633 C71.0090077,65.1920962 64.4172346,80.7432305 47.4221556,80.7432305" id="Fill-7" fill="#FF99C3"></path>
                <path d="M18.8253727,44.1954719 L17.7191077,48.3136661 C17.6537148,48.5574501 16.13385,54.3535481 17.5629144,61.1623503 C18.9178391,67.6158893 23.1712946,76.2357169 35.7429798,80.6507804 C39.7756821,82.0669328 43.7046721,82.7848094 47.4220723,82.7848094 C55.0709616,82.7848094 61.9680406,79.7475136 67.3685796,74.0008258 C71.3471349,69.7674773 73.1381513,65.4741016 73.2127075,65.2936116 L74.9070923,61.1750091 L70.5790805,59.8650272 L22.9759489,45.4519601 L18.8253727,44.1954719 Z M21.7468119,49.3537296 L69.3499435,63.7663884 C69.3499435,63.7663884 63.207174,78.7013249 47.4220723,78.7013249 C44.3669317,78.7013249 40.9510887,78.1422958 37.1478863,76.806588 C16.33586,69.497559 21.7468119,49.3537296 21.7468119,49.3537296 L21.7468119,49.3537296 Z" id="Fill-9" fill="#000000"></path>
            </g>
            <g id="Group-18" transform="translate(21.000000, 49.000000)">
                <g id="Group-14">
                    <mask id="mask-3" fill="white">
                        <use xlink:href="#path-2"></use>
                    </mask>
                    <g id="Clip-13"></g>
                    <path d="M39.6034036,35.7348012 C39.6034036,47.0776765 26.9639842,56.2727373 11.3729061,56.2727373 C-4.21858665,56.2727373 -16.8580061,47.0776765 -16.8580061,35.7348012 C-16.8580061,24.391926 -4.21858665,15.1968651 11.3729061,15.1968651 C26.9639842,15.1968651 39.6034036,24.391926 39.6034036,35.7348012" id="Fill-12" fill="#F44764" mask="url(#mask-3)"></path>
                </g>
                <g id="Group-17">
                    <mask id="mask-5" fill="white">
                        <use xlink:href="#path-4"></use>
                    </mask>
                    <g id="Clip-16"></g>
                    <path d="M39.6034036,35.7348012 C39.6034036,47.0776765 26.9639842,56.2727373 11.3729061,56.2727373 C-4.21858665,56.2727373 -16.8580061,47.0776765 -16.8580061,35.7348012 C-16.8580061,24.391926 -4.21858665,15.1968651 11.3729061,15.1968651 C26.9639842,15.1968651 39.6034036,24.391926 39.6034036,35.7348012 Z" id="Stroke-15" stroke="#000000" stroke-width="2.79310345" mask="url(#mask-5)"></path>
                </g>
            </g>
            <g id="Group-37" transform="translate(8.000000, 3.000000)">
                <path d="M13.153597,50.3816805 L59.6277527,64.7329683 C59.6277527,64.7329683 60.8817497,62.8072508 61.2984985,61.5778078 L13.7891389,47.2343065 C13.7891389,47.2343065 13.3515527,47.7916539 13.153597,50.3816805" id="Fill-19" fill="#FFFFFF"></path>
                <g id="Group-24" transform="translate(11.080439, 50.908046)">
                    <line x1="0.208374384" y1="0.0145074271" x2="49.3847291" y2="15.1776374" id="Fill-21" fill="#FFE77E"></line>
                    <line x1="0.208374384" y1="0.0145074271" x2="49.3847291" y2="15.1776374" id="Stroke-23" stroke="#000000" stroke-width="2.79310345"></line>
                </g>
                <path d="M4.81684469,1.68782502 C-0.0680714219,4.7959086 -1.46598153,11.2097295 1.69466842,16.0133251 L12.3527417,32.2118996 L12.4473745,32.150389 L12.5123669,32.2499864 L28.9904788,21.7657944 C33.8756517,18.6583888 35.2734522,12.2444916 32.1126698,7.44069475 L31.9545439,7.20722737 C29.0066939,2.97784662 23.3929315,1.55014498 18.7767804,3.69597878 L18.6393351,3.76118479 L18.5424763,3.64708079 C15.2269463,-0.16993956 9.51355877,-1.1305868 5.06283134,1.53591978 L4.81684469,1.68782502 Z" id="Stroke-27" fill="#000000" fill-rule="nonzero"></path>
                <path d="M28.6819456,9.51685951 L28.6819456,9.51685951 C26.4631605,6.17948844 21.8848191,5.22473696 18.4556218,7.38375304 L17.9016549,7.7326455 L17.5435275,7.1935126 C15.3247423,3.85614152 10.7460363,2.90139004 7.31720363,5.06040612 C3.88800626,7.21977714 2.90662052,11.6758756 5.12540567,15.0132467 L13.4626258,27.5538542 L13.5490578,27.4995505 L13.6044909,27.583313 L26.4901477,19.4693451 C29.9197097,17.3103291 30.9007308,12.8542306 28.6819456,9.51685951" id="Fill-25" fill="#F44764"></path>
                <path d="M92.0306362,11.6604151 L92.0306362,11.6604151 C88.5324471,5.9246538 80.9688737,4.06327714 75.1364746,7.50284876 L74.1942057,8.05814717 L73.6299278,7.1319668 C70.1317387,1.39661534 62.5681653,-0.464761317 56.7357663,2.97440049 C50.9025338,6.4139721 49.0100776,13.8521021 52.5074333,19.5874535 L65.6508559,41.1399986 L65.7975515,41.0535278 L65.8854855,41.1977824 L87.8023032,28.2734681 C93.6355357,24.8338965 95.5284086,17.3961763 92.0306362,11.6604151" id="Fill-29-Copy" fill="#F44764"></path>
                <path d="M92.0306362,11.6604151 L92.0306362,11.6604151 C88.5324471,5.9246538 80.9688737,4.06327714 75.1364746,7.50284876 L74.1942057,8.05814717 L73.6299278,7.1319668 C70.1317387,1.39661534 62.5681653,-0.464761317 56.7357663,2.97440049 C50.9025338,6.4139721 49.0100776,13.8521021 52.5074333,19.5874535 L65.6508559,41.1399986 L65.7975515,41.0535278 L65.8854855,41.1977824 L87.8023032,28.2734681 C93.6355357,24.8338965 95.5284086,17.3961763 92.0306362,11.6604151 Z" id="Stroke-31" stroke="#000000" stroke-width="4.65517241"></path>
                <path d="M63.5907834,102.559158 L63.5907834,102.559158 C58.4118465,102.559158 54.2139361,98.4306887 54.2139361,93.3383359 L54.2139361,70.5936409 L71.1860297,89.9713014 C74.0891016,95.4583054 70.3554494,102.234175 64.0733785,102.547274 C63.913347,102.55506 63.7528987,102.559158 63.5907834,102.559158" id="Fill-33" fill="#99DCF6"></path>
                <path d="M63.5907834,102.559158 L63.5907834,102.559158 C58.4118465,102.559158 54.2139361,98.4306887 54.2139361,93.3383359 L54.2139361,70.5936409 L71.1860297,89.9713014 C74.0891016,95.4583054 70.3554494,102.234175 64.0733785,102.547274 C63.913347,102.55506 63.7528987,102.559158 63.5907834,102.559158 Z" id="Stroke-35" stroke="#000000" stroke-width="4.65517241"></path>
            </g>
        </g>
        <path d="M160,21 C160.552285,21 161,21.4477153 161,22 L161,24 C161,24.5522847 160.552285,25 160,25 C159.447715,25 159,24.5522847 159,24 L159,22 C159,21.4477153 159.447715,21 160,21 Z M165,18 C165.552285,18 166,18.4477153 166,19 C166,19.5522847 165.552285,20 165,20 L163,20 C162.447715,20 162,19.5522847 162,19 C162,18.4477153 162.447715,18 163,18 L165,18 Z M157,18 C157.552285,18 158,18.4477153 158,19 C158,19.5522847 157.552285,20 157,20 L155,20 C154.447715,20 154,19.5522847 154,19 C154,18.4477153 154.447715,18 155,18 L157,18 Z M160,13 C160.552285,13 161,13.4477153 161,14 L161,16 C161,16.5522847 160.552285,17 160,17 C159.447715,17 159,16.5522847 159,16 L159,14 C159,13.4477153 159.447715,13 160,13 Z" id="Combined-Shape" fill="#D8D8D8"></path>
    </g>
</svg>