<?xml version="1.0" encoding="UTF-8"?>
<svg width="200px" height="200px" viewBox="0 0 200 200" version="1.1" xmlns="http://www.w3.org/2000/svg" xmlns:xlink="http://www.w3.org/1999/xlink">
    <title>Token 01</title>
    <defs>
        <polygon id="path-1" points="1.59235669e-05 0.0676531424 200 0.0676531424 200 199.908544 1.59235669e-05 199.908544"></polygon>
        <path d="M30.2629982,52.3407549 C74.4623835,68.0048225 90.9477268,27.5199775 90.9477268,27.5199775 L90.9477268,27.5199775 L1.22985464,0.109791549 C1.22985464,0.109791549 -8.96198599,38.4399775 30.2629982,52.3407549" id="path-3"></path>
        <path d="M30.2629982,52.3407549 C74.4623835,68.0048225 90.9477268,27.5199775 90.9477268,27.5199775 L90.9477268,27.5199775 L1.22985464,0.109791549 C1.22985464,0.109791549 -8.96198599,38.4399775 30.2629982,52.3407549" id="path-5"></path>
    </defs>
    <g id="Token-01" stroke="none" stroke-width="1" fill="none" fill-rule="evenodd">
        <g id="smiley-swap" transform="translate(17.000000, 45.000000)" fill="#FFFFFF" fill-rule="nonzero">
            <path d="M49.6194034,33.282543 C49.6253692,38.1159986 53.623135,42.032831 58.5564642,42.0386761 C63.4897934,42.032831 67.4875592,38.1159986 67.4935251,33.282543 L67.4935251,33.282543 L71.5367022,33.282543 C71.5367022,40.3062006 65.7252515,46 58.5564642,46 C51.3876769,46 45.5762263,40.3062006 45.5762263,33.282543 L45.5762263,33.282543 Z M81.4760502,11.6816568 L85.9229263,22.3805663 L90.1254175,11.6816568 L94,11.6816568 L84.4782716,34.5100383 L80.7398022,34.5100383 L84.0962269,26.6434605 L77.5473319,11.6816568 L81.4760502,11.6816568 Z M59.6500091,7.53848131 L59.6500091,30.1850117 C59.6500081,30.5593728 59.959306,30.863087 60.3414016,30.8639227 L60.3414016,30.8639227 L62.3227749,30.8639227 L62.3227749,34.400928 L58.813223,34.400928 C57.2278532,34.4017672 55.9412471,33.1445985 55.9378342,31.5913273 L55.9378342,31.5913273 L55.9378342,7.53848131 L59.6500091,7.53848131 Z M10.75912,0.000750974428 C11.7928859,-0.00984927393 12.8246684,0.0917992318 13.8355849,0.303836231 C14.6989562,0.489526762 15.5387664,0.768031432 16.3397561,1.13428983 C17.0833953,1.47824533 17.78449,1.90431732 18.4294012,2.40421706 C19.0656354,2.90166927 19.6671187,3.44034805 20.229806,4.01663063 L20.229806,4.01663063 L15.8989354,7.3187445 C14.6873228,5.50023296 12.9859093,4.59097719 10.794695,4.59097719 C9.50677658,4.59198747 8.5271749,4.88648531 7.85588995,5.47447071 C7.20753371,6.01627187 6.83904234,6.81276264 6.85050927,7.647592 C6.83432267,8.14187469 6.99888422,8.62556485 7.31453112,9.01147566 C7.66582037,9.41290845 8.09276995,9.74426042 8.57203034,9.98741018 C9.15956821,10.2945708 9.77466097,10.5482074 10.4095569,10.7451233 L10.4095569,10.7451233 L12.6183009,11.4437348 C13.5721236,11.7387378 14.5331644,12.0766779 15.5014233,12.457555 C16.4442471,12.8249627 17.3294549,13.3208468 18.1308805,13.9305494 C18.9164963,14.53057 19.5682034,15.2820354 20.045744,16.1385255 C20.536576,17.011411 20.781992,18.0979717 20.781992,19.3982074 C20.7804454,20.463469 20.5561996,21.5171299 20.123081,22.4942233 C19.6846768,23.5019559 19.0397786,24.4107774 18.2283251,25.1644044 C17.3409257,25.9760701 16.3028744,26.613454 15.1704211,27.0420176 C13.8501985,27.5400911 12.4443099,27.7839836 11.0297994,27.7603296 C8.47355459,27.7613399 6.31894646,27.2875166 4.56597502,26.3388598 C2.84931202,25.4209738 1.30514794,24.2227464 -5.5067062e-14,22.7957931 L-5.5067062e-14,22.7957931 L4.79489247,19.2542419 C5.44901452,20.3415348 6.36780431,21.2531782 7.46920507,21.9077533 C8.53539585,22.5239422 9.75334402,22.8425724 10.9911309,22.8291325 C12.3842276,22.8301428 13.4483844,22.4618942 14.1836013,21.7243867 C14.9188181,20.9868793 15.2864265,20.1523845 15.2864265,19.2209025 C15.3007086,18.6988336 15.1222119,18.1892511 14.7837362,17.7857938 C14.4163184,17.3677303 13.9692158,17.0238781 13.4674609,16.7734891 C12.8666964,16.4659334 12.2387324,16.2123262 11.5912659,16.0157759 C10.881828,15.795534 10.1527981,15.5747869 9.4041762,15.3535347 C8.44932234,15.0585317 7.49446849,14.739787 6.53961463,14.3973007 C5.614034,14.0704942 4.74539581,13.6058653 3.96429335,13.0197782 C3.20111481,12.4412794 2.56904211,11.7136294 2.10820595,10.8830271 C1.63077902,10.0374192 1.39206556,8.97662085 1.39206556,7.70063192 C1.38442405,6.65520516 1.62314536,5.62215452 2.08964507,4.68190276 C2.55981098,3.74132479 3.22579533,2.90762995 4.04472381,2.23448932 C4.92422529,1.50896401 5.93465571,0.951268043 7.0237441,0.590251799 C8.22584014,0.188028952 9.48891464,-0.0113039876 10.75912,0.000750974428 Z M69.5537821,11.6558945 C70.67534,11.6455011 71.789347,11.8365698 72.8406036,12.2196331 C73.808436,12.5698499 74.6946873,13.1068104 75.4468596,13.7987073 C76.1760602,14.4747208 76.7575287,15.2887944 77.1560068,16.1915654 C77.5735475,17.1406628 77.7842739,18.1647057 77.7747026,19.1981711 L77.7747026,19.1981711 L77.7747026,20.4771909 L64.7820907,20.4771909 C65.0038427,21.5303232 65.5921442,22.4752624 66.4463824,23.1504029 C67.3012138,23.8272933 68.3839315,24.1657385 69.6945354,24.1657385 C71.6044024,24.2222478 73.3559801,23.1308283 74.1135702,21.4122089 L74.1135702,21.4122089 L77.1420861,23.1231252 C76.4635421,24.3747121 75.4619999,25.4301742 74.2373093,26.1842863 C72.9906373,26.9591743 71.4763793,27.3466183 69.6945354,27.3466183 C68.5194996,27.3604661 67.3525396,27.1547378 66.2561335,26.7404477 C65.2651124,26.3634682 64.3607034,25.7967767 63.5957415,25.0734788 C62.8579921,24.3662619 62.2735143,23.5204376 61.8773139,22.5866643 C61.4640703,21.620311 61.2536568,20.5823271 61.2585201,19.5345958 C61.2479052,17.4277568 62.1155404,15.4079507 63.6607046,13.9426728 C65.2477002,12.4599631 67.3609509,11.639927 69.5537821,11.6558945 Z M41.3706416,11.6558945 C43.517516,11.6558945 45.1364367,12.2287257 46.2274036,13.3743879 C47.3183705,14.5200502 47.863854,16.0900318 47.863854,18.0843328 L47.863854,18.0843328 L47.863854,27.320856 L44.1068238,27.320856 L44.1068238,18.4131803 C44.1068238,17.2988369 43.8155211,16.4153433 43.2329159,15.7626997 C42.6503107,15.1100562 41.7867145,14.7837344 40.6421273,14.7837344 C39.7012411,14.7602211 38.7924366,15.1195655 38.131769,15.7763386 C37.4584218,16.4370644 37.1217481,17.4382561 37.1217481,18.7799135 L37.1217481,18.7799135 L37.1217481,27.320856 L33.3755451,27.320856 L33.3755451,18.3086159 C33.3776074,17.2114473 33.0961008,16.3496749 32.5310253,15.7232987 C31.9659498,15.0969225 31.1291637,14.7837344 30.0206671,14.7837344 C29.0538169,14.7558455 28.1190513,15.125039 27.4422523,15.8021008 C26.7596246,16.4810118 26.4183108,17.4993783 26.4183108,18.8572002 L26.4183108,18.8572002 L26.4183108,27.320856 L22.7370707,27.320856 L22.7370707,11.6816568 L26.3935629,11.6816568 L26.3935629,13.70172 C26.9090656,13.0654744 27.5668433,12.5537422 28.3161601,12.2059943 C29.1385025,11.828981 30.0378263,11.6408365 30.9456173,11.6558945 C32.2015698,11.6549258 33.2610863,11.8872496 34.124167,12.3529906 C34.9744484,12.8023067 35.6730548,13.4841376 36.1349283,14.3154676 C36.6826966,13.5052172 37.4266249,12.8403857 38.3003636,12.3802683 C39.2441497,11.8866358 40.3009598,11.6373015 41.3706416,11.6558945 Z M53.6749543,11.6816568 L53.6749543,27.3193406 L49.9643263,27.3193406 L49.9643263,11.6816568 L53.6749543,11.6816568 Z M69.5429549,14.8367743 C68.4334271,14.8367743 67.4739331,15.0767168 66.6644727,15.5566018 C65.8996986,15.9897727 65.301775,16.6576061 64.9630593,17.4569463 L64.9630593,17.4569463 L74.0176723,17.4569463 C73.7690137,16.6284434 73.2009543,15.9273092 72.4338111,15.5020464 C71.6511609,15.0585317 70.6875422,14.8367743 69.5429549,14.8367743 Z M51.8157735,5.58661225 C52.5375852,5.58762254 53.104723,5.79725651 53.5171869,6.21551416 C53.9394253,6.66055012 54.1622345,7.25268492 54.1358827,7.85975168 C54.1286646,8.53664209 53.9224327,9.08017498 53.5171869,9.49035036 C53.1119412,9.90052574 52.5448033,10.1056134 51.8157735,10.1056134 C51.0692139,10.1056134 50.4958891,9.90052574 50.0957991,9.49035036 C49.6957092,9.08017498 49.4956642,8.53664209 49.4956642,7.85975168 C49.4693938,7.25073344 49.6965785,6.65735471 50.1251872,6.21551416 C50.543838,5.79624622 51.1073668,5.58661225 51.8157735,5.58661225 Z" id="Combined-Shape"></path>
        </g>
        <g id="Group-35">
            <g id="Group-20">
                <path d="M190.980478,100.366301 C190.988121,150.789849 150.085414,191.672267 99.6217197,191.679905 C49.1578662,191.687383 8.24289809,150.817216 8.23525478,100.393667 C8.22761146,49.9702784 49.1306369,9.08770088 99.594172,9.08022275 C150.057866,9.07258552 190.972834,49.9427526 190.980478,100.366301" id="Fill-1" fill="#FFE77E"></path>
                <path d="M175.678774,50.2124741 C175.678774,50.2124741 207.067787,159.140557 94.9157166,190.504916 C94.9157166,190.504916 159.230685,199.899666 185.103137,133.282164 C185.103137,133.282164 209.412532,104.282005 175.678774,50.2124741" id="Fill-3" fill="#EAA549"></path>
                <g id="Group-7">
                    <mask id="mask-2" fill="white">
                        <use xlink:href="#path-1"></use>
                    </mask>
                    <g id="Clip-6"></g>
                    <path d="M99.9863217,9.47194909 C50.0361624,9.47942721 9.40431529,50.0908831 9.41164013,100.001623 C9.41928344,149.912522 50.0633917,190.511726 100.01371,190.504407 C149.96371,190.49677 190.595717,149.885473 190.588232,99.9745744 C190.580748,50.0636754 149.936481,9.46447096 99.9863217,9.47194909 M100.015143,199.908544 C44.8748567,199.916818 0.00829617834,155.099475 1.59235669e-05,100.003055 C-0.00826433121,44.906794 44.8447611,0.0759268099 99.9848885,0.0676531424 C155.125016,0.0593794749 199.991736,44.8768815 200.000016,99.9731424 C200.008296,155.069403 155.155271,199.90027 100.015143,199.908544" id="Fill-5" fill="#000000" mask="url(#mask-2)"></path>
                </g>
                <polyline id="Fill-8" fill="#FFE77E" points="63.128551 42.0005728 75.6798248 56.8888783 56.8578503 67.8632617"></polyline>
                <polygon id="Fill-10" fill="#000000" points="58.8344745 71.2476531 54.8812898 64.4789976 69.6777866 55.8516309 60.1295382 44.5251392 66.1276274 39.4761337 81.6817675 57.9260939"></polygon>
                <polyline id="Fill-12" fill="#FFE77E" points="154.112755 67.8487192 133.721831 75.6886555 143.920557 93.7120446"></polyline>
                <polygon id="Fill-14" fill="#000000" points="140.507134 95.6407478 128.07035 73.6630231 152.704586 64.1919014 155.521146 71.5056643 139.373217 77.7144153 147.334045 91.7833095"></polygon>
                <path d="M94.0124841,159.311059 C87.4645541,159.312013 80.510414,158.012411 73.3417834,155.447733 C51.3819108,147.591567 43.9715605,132.35179 41.6215605,120.950199 C39.1121656,108.772792 41.7499045,98.5102625 41.8632803,98.0793954 L42.9043631,94.1274463 L140.529841,124.236277 L138.934936,128.188703 C138.422675,129.459029 126.014713,159.306285 94.0124841,159.311059" id="Fill-16" fill="#FF99C3"></path>
                <path d="M40.1527389,89.1776293 L38.0705732,97.0818457 C37.9476433,97.5489897 35.0877707,108.673731 37.7809236,121.740398 C40.3337898,134.12576 48.3458917,150.667208 72.0205732,159.137056 C79.6140446,161.853524 87.0135669,163.230453 94.0130892,163.229499 C108.415478,163.227271 121.40258,157.395768 131.570255,146.365696 C139.060223,138.24 142.432516,130.000064 142.572643,129.653206 L145.761178,121.748671 L137.611338,119.235227 L47.9686624,91.5881305 L40.1527389,89.1776293 Z M45.6556051,99.0765951 L135.298121,126.723532 C135.298121,126.723532 123.734904,155.38813 94.0118153,155.392745 C88.258949,155.39354 81.8261465,154.320827 74.6642038,151.758695 C35.4724841,137.737693 45.6556051,99.0765951 45.6556051,99.0765951 L45.6556051,99.0765951 Z" id="Fill-18" fill="#000000"></path>
            </g>
            <g id="Group-27" transform="translate(45.000000, 99.000000)">
                <g id="Group-23">
                    <mask id="mask-4" fill="white">
                        <use xlink:href="#path-3"></use>
                    </mask>
                    <g id="Clip-22"></g>
                    <path d="M74.4623039,67.0253904 C74.4656506,88.481751 50.5457189,105.878979 21.0359011,105.883397 C-8.47407618,105.887655 -32.3991077,88.4975256 -32.4024545,67.0413228 C-32.4056419,45.5849623 -8.4860289,28.1877341 21.0239483,28.1833163 C50.5337662,28.1789003 74.4589571,45.5690299 74.4623039,67.0253904" id="Fill-21" fill="#F44764" mask="url(#mask-4)"></path>
                </g>
                <g id="Group-26">
                    <mask id="mask-6" fill="white">
                        <use xlink:href="#path-5"></use>
                    </mask>
                    <g id="Clip-25"></g>
                    <path d="M21.0243308,30.5143204 C-7.13977075,30.5184225 -30.050734,46.9044958 -30.0478653,67.0411493 C-30.0446779,87.1776451 -7.12845552,103.556304 21.0353273,103.552204 C49.1994289,103.547944 72.1105515,87.1623437 72.1075235,67.0258479 C72.1044954,46.8893521 49.188273,30.5102197 21.0243308,30.5143204 M21.0361242,108.214243 C-9.72490385,108.218659 -34.7542068,89.7485972 -34.757713,67.0417803 C-34.7610597,44.3344901 -9.73749405,25.8570141 21.023534,25.8524386 C51.7847214,25.8478648 76.813865,44.3179268 76.8173711,67.0250592 C76.8207179,89.7320338 51.7973116,108.20951 21.0361242,108.214243" id="Fill-24" fill="#000000" mask="url(#mask-6)"></path>
                </g>
            </g>
            <g id="Group-34" transform="translate(41.000000, 98.000000)">
                <path d="M4.24532047,6.18527107 L91.8005721,33.9689033 C91.8005721,33.9689033 94.1629799,30.2387628 94.9476862,27.8573455 L5.44190604,0.0887008264 C5.44190604,0.0887008264 4.61735067,1.16861405 4.24532047,6.18527107" id="Fill-28" fill="#FFFFFF"></path>
                <line x1="0.732217282" y1="7.23350083" x2="93.3787357" y2="36.5892198" id="Fill-30" fill="#FFE77E"></line>
                <polygon id="Fill-32" fill="#000000" points="92.6745881 38.8617434 0.0280696309 9.50602438 1.43665185 4.96091281 94.0831703 34.3166318"></polygon>
            </g>
        </g>
    </g>
</svg>